<svg width="32" height="34" viewBox="0 0 32 34" fill="none" xmlns="http://www.w3.org/2000/svg">
<g clip-path="url(#clip0_10_157)">
<path d="M31.9222 17.0039C31.9222 19.7011 31.3302 22.2544 30.2716 24.5198C30.2666 24.5304 30.2616 24.5464 30.2516 24.5571C29.8602 25.3939 29.3987 26.1988 28.887 26.9557C28.882 26.9557 28.882 26.9611 28.8769 26.9664C28.8569 26.993 28.8368 27.025 28.8167 27.057C28.8117 27.0623 28.8118 27.0623 28.8067 27.0676C28.606 27.3608 28.3903 27.6487 28.1696 27.9258C28.1646 27.9311 28.1595 27.9418 28.1545 27.9471C28.1344 27.9737 28.1144 27.9951 28.0893 28.0271C28.0843 28.0324 28.0792 28.0378 28.0742 28.0431C27.4772 28.784 26.82 29.4716 26.1076 30.0899C25.947 30.2285 25.7815 30.3671 25.6159 30.5004C25.5206 30.5803 25.4303 30.655 25.335 30.7242C25.1996 30.8362 25.0591 30.9428 24.9136 31.044C24.733 31.1773 24.5474 31.3052 24.3617 31.4278C24.1811 31.5451 24.0005 31.657 23.8199 31.7689H23.8149C21.5123 33.1548 18.8533 33.949 16.0238 33.9597H15.9034C12.9786 33.9491 10.2394 33.1016 7.8865 31.6303H7.8815C7.741 31.5398 7.60056 31.4491 7.46006 31.3532C6.44662 30.6762 5.5135 29.8819 4.67069 28.9864C4.38975 28.6879 4.11887 28.3734 3.863 28.0536C3.85294 28.0483 3.84794 28.0376 3.84294 28.0323C3.81787 28.0057 3.79781 27.9791 3.77769 27.9524C3.77269 27.9471 3.76769 27.9417 3.76269 27.9364C3.53694 27.6539 3.32119 27.366 3.1155 27.0675C3.09037 27.0302 3.07031 26.9982 3.04525 26.9609C2.83956 26.6624 2.64387 26.3586 2.46325 26.0441C2.18231 25.5804 1.92644 25.1006 1.69069 24.6049C1.68569 24.5942 1.68062 24.5836 1.67562 24.5729C1.36456 23.9066 1.09369 23.219 0.862875 22.51C0.306 20.7831 0 18.9282 0 17.0039C0 16.359 0.035125 15.7246 0.100313 15.101C0.280938 13.3792 0.702312 11.7375 1.33444 10.213V10.2023L1.37962 10.0957C1.38462 10.0904 1.38462 10.0904 1.38462 10.085C2.14219 8.27805 3.19569 6.64691 4.465 5.2397C4.48006 5.2237 4.49513 5.20245 4.51013 5.18637C6.15063 3.3954 8.15738 1.98812 10.4049 1.09794C10.415 1.09263 10.43 1.08725 10.4401 1.08194C12.1458 0.420996 13.987 0.0531719 15.9034 0.0424805H16.0238C17.8199 0.0531719 19.5456 0.372984 21.151 0.959352C21.2614 1.00198 21.3717 1.0393 21.4821 1.08725C21.4921 1.08725 21.5072 1.09256 21.5173 1.09794C23.1878 1.75888 24.723 2.70238 26.0725 3.88574C26.6244 4.36015 27.1411 4.87719 27.6278 5.43155C27.6328 5.43686 27.6378 5.44755 27.6428 5.45286C27.7582 5.58076 27.8686 5.71404 27.9789 5.84732C28.0842 5.97521 28.1947 6.1138 28.3 6.25246C28.3 6.25246 28.305 6.25246 28.305 6.25777C28.5057 6.51364 28.7014 6.78013 28.887 7.05199C28.9823 7.19058 29.0776 7.33448 29.1729 7.48377C29.2582 7.61166 29.3384 7.75025 29.4188 7.88353C29.4438 7.91554 29.4589 7.94748 29.4789 7.97949C29.5542 8.10739 29.6244 8.23535 29.6997 8.36332C29.79 8.52322 29.8752 8.68313 29.9606 8.84835C30.1662 9.25349 30.3619 9.66919 30.5426 10.0957C30.5476 10.101 30.5526 10.1063 30.5526 10.1117C30.5677 10.1437 30.5828 10.181 30.5928 10.2129C30.663 10.3781 30.7283 10.5487 30.7934 10.7193C30.7984 10.7247 30.7984 10.73 30.8035 10.7407C30.8637 10.9059 30.9189 11.0712 30.9791 11.2417C30.9941 11.279 31.0041 11.3216 31.0192 11.3643C31.4004 12.5104 31.6664 13.7204 31.8068 14.9677C31.8068 14.973 31.8068 14.973 31.8068 14.9784C31.8821 15.6393 31.9222 16.3163 31.9222 17.0039Z" fill="#FDFDED"/>
<path d="M16.0222 0.0739746V21.5379C16.0025 21.5383 15.982 21.5383 15.9623 21.5383C15.9425 21.5383 15.9221 21.5383 15.9023 21.5379V0.0739746H16.0222Z" fill="#C09278"/>
<path d="M19.8059 21.4134L19.7682 21.5376L17.1236 19.9151L17.0037 19.8419L16.0222 19.2399L15.9725 19.2093L15.9024 19.1661L15.8526 19.1354L10.3992 15.7905L5.17473 12.5857L1.33691 10.2312L1.38129 10.1268C1.3831 10.1223 1.38491 10.1185 1.38666 10.114L5.3071 12.5188L10.4236 15.6573L15.9022 19.0182L15.973 19.0615L16.0222 19.0921L16.0929 19.1354L17.1242 19.768L17.244 19.8419L19.8059 21.4134Z" fill="#C09278"/>
<path d="M21.0448 17.3633L20.989 17.5442L17.2443 19.8419L17.1238 19.9151L16.0932 20.5477L16.0224 20.591L15.9732 20.621L15.9025 20.6643L12.6133 22.6824L7.26959 25.9604L3.84084 28.0639C3.81447 28.0307 3.78809 27.9982 3.76172 27.9651L7.25466 25.8228L12.4857 22.6136L15.8533 20.5477L15.9025 20.5178L15.9733 20.4745L16.0225 20.4439L17.0039 19.8419L17.1244 19.768L21.0448 17.3633Z" fill="#C09278"/>
<path d="M28.1696 27.9562C28.1438 27.9893 28.1174 28.0225 28.091 28.055L24.4584 25.8267L19.3329 22.6824L16.0222 20.6515L15.973 20.621L15.9023 20.5777L15.8531 20.5477L14.8219 19.9151L14.7019 19.8412L10.9302 17.5276L10.875 17.3467L14.8218 19.768L14.9417 19.8419L15.9023 20.4305L15.973 20.4745L16.0222 20.5044L16.0929 20.5477L19.4426 22.6027L24.6065 25.7706L28.1696 27.9562Z" fill="#C09278"/>
<path d="M30.5918 10.2414L26.8723 12.5231L21.5207 15.8057L16.093 19.1354L16.0223 19.1786L15.9725 19.2092L15.9024 19.2525L14.9419 19.8417L14.822 19.915L12.16 21.5483L12.1216 21.424L14.702 19.8411L14.822 19.7678L15.8526 19.1352L15.9023 19.1047L15.9731 19.0614L16.0223 19.0314L21.5105 15.6648L26.7961 12.4224L30.5426 10.124C30.5595 10.163 30.5756 10.2025 30.5918 10.2414Z" fill="#C09278"/>
<path d="M12.3321 22.937L10.0889 15.6006L15.9621 11.0667L21.8354 15.6007L19.5921 22.937H12.3321Z" fill="#FDEBD2"/>
<path d="M21.5171 1.05539L21.502 1.0714L21.482 1.08734L19.8314 2.36127L16.0237 5.29836L15.9635 5.3463L15.9033 5.29836L10.4399 1.08202L10.4048 1.05539C12.1205 0.383762 13.9717 0.010625 15.9033 0H16.0237C17.8297 0.010625 19.5605 0.335816 21.176 0.927496C21.2913 0.970129 21.4067 1.01276 21.5171 1.05539Z" fill="#6D5142"/>
<path d="M31.8203 14.9853L26.8836 12.5112L26.8003 12.4691L26.8075 12.4105L27.6415 5.45044C28.84 6.81369 29.8286 8.38646 30.554 10.1122C30.5709 10.151 30.587 10.1905 30.6032 10.2294C30.7424 10.5663 30.8706 10.9097 30.9887 11.2581C31.0031 11.2982 31.0169 11.339 31.0301 11.3798C31.412 12.5296 31.68 13.7368 31.8203 14.9853Z" fill="#6D5142"/>
<path d="M5.32825 12.4812L5.25269 12.5187L5.12019 12.5856L0.046875 15.1286C0.227313 13.4099 0.65 11.7683 1.27775 10.2433L1.28256 10.2312L1.32694 10.1267C1.32875 10.1223 1.33056 10.1184 1.33231 10.114C2.10031 8.28827 3.16394 6.63396 4.45775 5.21851L5.32825 12.4812Z" fill="#6D5142"/>
<path d="M7.88623 31.6626C7.76586 31.588 7.64542 31.508 7.53004 31.4281C6.48654 30.7404 5.51829 29.9249 4.65536 29.0028C4.37442 28.7043 4.10354 28.3898 3.84261 28.0646C3.81248 28.0326 3.78742 28.0006 3.76236 27.9633C3.53661 27.6861 3.32086 27.393 3.11517 27.0945C3.09004 27.0625 3.06998 27.0251 3.04492 26.9932C2.81917 26.6681 2.60848 26.3323 2.41279 25.9911C2.14686 25.5434 1.90104 25.0796 1.67529 24.5999L1.69036 24.6052L1.71042 24.6105L7.25404 25.7992V25.8205L7.26911 25.9591L7.29417 26.1989L7.88117 31.6306L7.88623 31.6626Z" fill="#6D5142"/>
<path d="M30.2714 24.55C29.8732 25.4043 29.4092 26.2184 28.8864 26.9834C28.8841 26.9873 28.8811 26.9911 28.8786 26.9949C28.8576 27.0255 28.8361 27.0567 28.8151 27.0873C28.8121 27.0911 28.8097 27.0943 28.8072 27.0981C28.6034 27.3918 28.3906 27.6778 28.1693 27.9562C28.1435 27.9893 28.1171 28.0224 28.0907 28.0549C26.8851 29.5512 25.4377 30.8221 23.813 31.7993L24.4581 25.8266L24.4605 25.8018L24.6062 25.7706L30.0039 24.608L30.1238 24.5819L30.2714 24.55Z" fill="#6D5142"/>
<path d="M21.5538 15.698L19.8062 21.4133L19.7683 21.5376L19.4182 22.6823H12.5067L10.3993 15.7904L10.3711 15.698L10.4238 15.6572L15.9625 11.3816L21.5538 15.698Z" fill="#6D5142"/>
<path opacity="0.1" d="M30.9656 11.4017C30.9524 11.361 30.9386 11.3202 30.9242 11.2801C30.8061 10.9317 30.6778 10.5883 30.5387 10.2513C30.5225 10.2125 30.5063 10.173 30.4895 10.1341C29.7641 8.40842 28.7755 6.83565 27.577 5.4724C27.4516 5.32976 27.3234 5.19024 27.1936 5.05225L4.62402 29.0324C5.58071 30.049 6.65784 30.9377 7.83152 31.671C10.1847 33.1412 12.9241 33.9878 15.8493 33.9993C15.8691 33.9999 15.8895 33.9999 15.9092 33.9999C15.929 33.9999 15.9494 33.9999 15.9691 33.9993C18.8008 33.9884 21.458 33.1941 23.7602 31.8092C25.385 30.832 26.8323 29.5611 28.038 28.0648C28.0643 28.0323 28.0907 27.9992 28.1165 27.9661C28.3378 27.6877 28.5506 27.4017 28.7545 27.108C28.7568 27.1042 28.7593 27.101 28.7623 27.0972C28.7833 27.0666 28.8048 27.0354 28.8258 27.0048C28.8282 27.001 28.8312 26.9972 28.8336 26.9933C29.3565 26.2283 29.8205 25.4142 30.2186 24.5599C31.2756 22.2941 31.8697 19.7422 31.8697 17.0419C31.8697 16.3533 31.8308 15.6742 31.7558 15.0073C31.6155 13.7587 31.3475 12.5516 30.9656 11.4017Z" fill="#9A716A"/>
</g>
<defs>
<clipPath id="clip0_10_157">
<rect width="32" height="34" fill="white"/>
</clipPath>
</defs>
</svg>
