<svg width="32" height="34" viewBox="0 0 32 34" fill="none" xmlns="http://www.w3.org/2000/svg">
<g clip-path="url(#clip0_10_241)">
<path d="M16.001 33.9982C24.837 33.9982 32 26.3875 32 16.9992C32 7.61095 24.837 0.000244141 16.001 0.000244141C7.16497 0.000244141 0.00195312 7.61095 0.00195312 16.9992C0.00195312 26.3875 7.16497 33.9982 16.001 33.9982Z" fill="#0071CE"/>
<path d="M16.001 33.9982C24.837 33.9982 32 26.3875 32 16.9992C32 7.61095 24.837 0.000244141 16.001 0.000244141C7.16497 0.000244141 0.00195312 7.61095 0.00195312 16.9992C0.00195312 26.3875 7.16497 33.9982 16.001 33.9982Z" fill="#E8E8E8"/>
<path d="M16.0011 0.000244141C13.5629 0.000244141 11.2527 0.580761 9.18457 1.61725C16.3954 1.05966 22.5881 4.1248 25.817 8.7733L25.8172 8.77379C26.3372 7.5203 26.7356 6.13724 26.9806 4.63603C24.1154 1.76238 20.2521 0.000244141 16.0011 0.000244141Z" fill="#00B3E3"/>
<path d="M22.4545 13.8371C18.816 8.59258 11.4057 5.36093 3.01597 7.06812C1.80982 8.84532 0.918964 10.8797 0.430176 13.0795C7.13257 10.4631 13.3448 12.8399 16.0009 16.9993C18.2246 16.8276 20.5207 15.7313 22.4546 13.8374L22.4545 13.8371Z" fill="#00B3E3"/>
<path d="M29.8565 25.4986C31.0756 23.255 31.7576 20.8389 31.9468 18.4177C28.7959 25.3316 23.2013 29.4972 17.7979 30.1441L17.7974 30.144C18.559 31.2492 19.4873 32.3073 20.5884 33.2834C24.3631 32.0838 27.7311 29.41 29.8565 25.4986Z" fill="#0071CE"/>
<path d="M15.3518 24.5185C21.4458 23.7927 27.7849 18.59 30.5883 10.0166C29.7428 8.01818 28.5301 6.18118 26.9814 4.63159C25.7628 12.1071 20.7195 16.6349 16.0011 16.9992C15.0292 19.1312 14.7747 21.7921 15.3514 24.5185H15.3518Z" fill="#0071CE"/>
<path d="M2.1455 25.4986C3.36453 27.7423 4.99296 29.5777 6.87185 30.9625C2.81191 24.6062 2.21384 17.3754 4.38833 12.0801L4.38863 12.0796C3.10698 12.2279 1.78042 12.553 0.434249 13.0781C-0.475221 17.1512 0.0200494 21.5871 2.1455 25.4986Z" fill="#0071CE"/>
<path d="M4.38821 12.0803C2.21372 17.3755 2.81187 24.6062 6.87165 30.9624C9.11265 32.6141 11.7104 33.6229 14.3986 33.9128C8.81216 27.0466 7.74131 18.6123 10.1965 12.642L10.1967 12.6417C8.45135 12.0629 6.47919 11.8379 4.38844 12.0795L4.38821 12.0803Z" fill="#FFC843"/>
<path d="M10.1968 12.642C7.74158 18.6123 8.81258 27.0466 14.3989 33.9129C16.4504 34.134 18.5542 33.9367 20.5915 33.2866C15.1078 28.4275 13.9387 21.5229 16.001 16.9992C14.7493 15.0389 12.7076 13.4743 10.1969 12.6418L10.1968 12.642Z" fill="#0071CE"/>
</g>
<defs>
<clipPath id="clip0_10_241">
<rect width="32" height="34" fill="white"/>
</clipPath>
</defs>
</svg>
