<svg width="32" height="32" viewBox="0 0 32 32" fill="none" xmlns="http://www.w3.org/2000/svg">
<g clip-path="url(#clip0_10_89)">
<path d="M6.89667 19.5467C6.88298 19.6013 6.86936 19.6513 6.85573 19.7014C6.82392 19.8106 6.79204 19.9106 6.75567 20.0061C6.74198 20.0426 6.72836 20.0744 6.71473 20.1062C6.64198 20.2746 6.55554 20.4247 6.45548 20.552L6.12792 20.3291L4.99061 19.5467C5.06792 19.4421 5.13161 19.3193 5.18167 19.1691L5.18623 19.16C5.35911 18.6733 5.40461 17.9499 5.38642 17.1447C5.35911 15.971 5.19079 14.6289 5.04523 13.6054C5.04067 13.5736 5.03611 13.5463 5.03161 13.5144C5.00429 13.3189 4.97704 13.1323 4.95423 12.964C4.86329 12.3453 4.79954 11.9086 4.78136 11.6311C4.77686 11.5856 4.77686 11.5401 4.77686 11.4946L6.43729 11.9177C6.43729 12.0951 6.51917 12.6411 6.60104 13.2143C6.66017 13.61 6.71479 14.0013 6.76936 14.3925C6.79211 14.5881 6.81942 14.7838 6.84217 14.9748C6.86492 15.1704 6.88767 15.366 6.91042 15.5616C6.97861 16.1713 7.02417 16.7626 7.04692 17.3177C7.07411 18.1728 7.03773 18.9326 6.89667 19.5467Z" fill="#C8D2A7"/>
<path d="M16.6922 18.5748C16.4604 18.7007 16.0052 18.8687 15.3156 19.1221C13.8394 19.666 10.9934 20.7144 9.9028 21.7342C9.72224 21.9035 9.5898 22.0715 9.51937 22.2367L8.38962 21.6641L7.93262 21.433C7.99855 21.2789 8.0913 21.1278 8.20837 20.979C8.28974 20.8753 8.38412 20.7728 8.48799 20.6712C9.60249 19.5928 11.949 18.6625 14.307 17.7941C14.8531 17.5928 15.3688 17.4027 15.5268 17.3162L16.6922 18.5748Z" fill="#C8D2A7"/>
<path d="M8.4572 21.5485L8.38895 21.6622L8.0432 22.2445L6.30995 25.1697L5.62757 26.3161C5.49564 26.539 5.18626 26.6027 4.94064 26.4571L3.57132 25.6429C3.3257 25.4973 3.2347 25.197 3.36657 24.9741L4.04895 23.8232L5.78676 20.9025L6.12795 20.3294L6.2007 20.2065C6.30989 20.02 6.53739 19.9473 6.7557 20.0064C6.76026 20.0064 6.76932 20.011 6.77389 20.011C6.81026 20.0247 6.85126 20.0429 6.88764 20.0655L8.25245 20.8752C8.25701 20.8798 8.26157 20.8798 8.26607 20.8843C8.27064 20.8889 8.2752 20.8889 8.2797 20.8934C8.5072 21.0435 8.58458 21.3301 8.4572 21.5485Z" fill="#F4F4F5"/>
<path d="M6.69216 25.397L3.28022 31.1335C2.92997 31.7204 2.2476 31.9888 1.61522 31.8387C1.46966 31.8023 1.3286 31.7478 1.19666 31.6658L0.787223 31.4202C0.36416 31.17 0.104848 30.7378 0.0547851 30.2783C0.0184101 29.9598 0.0820976 29.6323 0.254973 29.3366L3.66691 23.5955L4.04904 23.8229L6.31003 25.1695L6.69216 25.397Z" fill="#525151"/>
<path d="M9.97202 21.6165C9.97202 21.6393 9.97202 21.6575 9.96746 21.6802C9.96289 21.7303 9.94471 21.7803 9.9174 21.8258L9.45789 22.5946C9.34414 22.7948 9.06664 22.8539 8.84827 22.722L8.04308 22.2443L5.78665 20.9023L4.9769 20.4201C4.75852 20.2927 4.67664 20.0243 4.79489 19.8242L5.18158 19.169L5.18615 19.1599L5.24983 19.0553C5.36814 18.8551 5.64558 18.8005 5.86396 18.9279L6.89664 19.5466L6.93758 19.5693C6.88752 19.724 6.83296 19.8741 6.77377 20.0106C6.81015 20.0243 6.85115 20.0425 6.88752 20.0652L8.2524 20.875C8.25696 20.8796 8.26152 20.8796 8.26602 20.8841C8.35246 20.7658 8.45708 20.6522 8.56627 20.5384L8.60721 20.5611L9.73539 21.2298C9.88102 21.3208 9.96746 21.4709 9.97202 21.6165Z" fill="#525151"/>
<g opacity="0.2">
<path d="M6.9785 19.0146C6.90118 18.9464 6.82387 18.8827 6.7465 18.8099C6.66918 18.7416 6.59637 18.6689 6.52362 18.5961C6.44631 18.5232 6.37806 18.4505 6.30525 18.3732C6.16881 18.2231 6.03681 18.0684 5.914 17.9092C5.72293 17.6681 5.5455 17.4087 5.38625 17.1449C5.38168 17.1403 5.37712 17.1312 5.37262 17.1267V17.1221C5.34531 15.912 5.16337 14.5154 5.01318 13.4873C5.02231 13.5282 5.03137 13.5692 5.04506 13.6056C5.07687 13.7284 5.10875 13.8512 5.14518 13.9741C5.16337 14.0514 5.19068 14.1333 5.21793 14.2106C5.32256 14.5472 5.4545 14.8748 5.60006 15.1887C5.63643 15.2797 5.68193 15.3662 5.72743 15.4526C5.75931 15.5254 5.79568 15.5936 5.84118 15.6618C5.84575 15.6664 5.85031 15.6709 5.85031 15.6801C5.96406 15.8939 6.08687 16.0986 6.22793 16.2988C6.30981 16.4352 6.40531 16.5671 6.51 16.6946C6.5555 16.7628 6.6055 16.8265 6.65556 16.8856C6.70562 16.9493 6.75568 17.013 6.81937 17.0721C6.83756 17.0903 6.85125 17.1085 6.86487 17.1267C6.88762 17.1494 6.91037 17.1722 6.92856 17.1949C6.95587 17.2359 6.99675 17.2768 7.03318 17.3177C7.05587 17.9409 7.04225 18.5096 6.9785 19.0146Z" fill="#040000"/>
<path d="M14.2621 19.5112C13.3379 19.8608 12.2413 20.3062 11.3267 20.785C10.5222 20.7275 9.73688 20.5456 8.99463 20.239C9.39688 19.9422 9.89007 19.6596 10.436 19.3867C11.6523 19.7363 12.9548 19.7793 14.2621 19.5112Z" fill="#040000"/>
<path d="M13.8342 19.5878C13.6932 19.6105 13.5522 19.6287 13.4112 19.6423C13.2702 19.656 13.1291 19.6696 12.9881 19.6742C12.8471 19.6833 12.7061 19.6833 12.5696 19.6833C12.4012 19.6833 12.2284 19.6742 12.0601 19.6651C12.0601 19.6651 12.0601 19.6651 12.0556 19.6651C12.0419 19.6651 12.0282 19.6606 12.0146 19.6606C11.8781 19.656 11.7417 19.6424 11.6052 19.6242C11.5688 19.6196 11.5279 19.6151 11.4869 19.6105C11.3414 19.5878 11.1958 19.565 11.0547 19.5377C10.8864 19.5013 10.7226 19.4649 10.5634 19.4194C10.5452 19.4148 10.5316 19.4057 10.5134 19.4057C10.4906 19.4012 10.4679 19.3966 10.4451 19.3921C10.4406 19.3875 10.4406 19.3875 10.4361 19.3875C9.89012 19.6604 9.39881 19.9425 8.99393 20.2382C8.9985 20.2382 8.9985 20.2427 9.00306 20.2427C9.74006 20.5475 10.5271 20.7296 11.3277 20.7841C12.233 20.311 13.3202 19.8697 14.2392 19.5194C14.2437 19.5194 14.2528 19.5194 14.2574 19.5149L14.2619 19.5103C14.1209 19.5377 13.9799 19.5651 13.8342 19.5878ZM7.03318 17.3177C6.97406 17.254 6.91487 17.1904 6.86487 17.1267C6.85125 17.1085 6.83756 17.0903 6.81937 17.0721C6.76481 17.0084 6.71018 16.9493 6.65556 16.8856C6.60556 16.8265 6.5555 16.7628 6.51 16.6946C6.40537 16.5672 6.30981 16.4353 6.22793 16.2988C6.096 16.0986 5.96862 15.8939 5.85031 15.6801C5.85031 15.6709 5.84575 15.6664 5.84118 15.6618C5.80025 15.5936 5.76387 15.5254 5.72743 15.4526C5.68193 15.3661 5.641 15.2797 5.60006 15.1887C5.4545 14.8748 5.32256 14.5473 5.21793 14.2106C5.19062 14.1333 5.16793 14.0514 5.14518 13.9741C5.10881 13.8512 5.07693 13.7284 5.04506 13.6056C5.03143 13.5692 5.02231 13.5282 5.01318 13.4873C5.16331 14.5154 5.34531 15.9121 5.37262 17.1221V17.1267C5.37712 17.1312 5.38168 17.1403 5.38625 17.1449C5.5455 17.4087 5.72287 17.6681 5.914 17.9092C6.03681 18.0684 6.16875 18.2231 6.30525 18.3732C6.378 18.4506 6.44625 18.5233 6.52362 18.5961C6.59643 18.6689 6.66918 18.7416 6.7465 18.8099C6.82387 18.8827 6.90118 18.9464 6.9785 19.0146C7.04231 18.5096 7.05593 17.9409 7.03318 17.3177Z" fill="#040000"/>
</g>
<path d="M22.5312 9.33712L10.7935 2.36304L10.4267 2.98025L22.1644 9.95433L22.5312 9.33712Z" fill="#F0EFEF"/>
<path d="M15.7237 0.721875L15.1064 0.355225L6.03689 15.6245L6.65418 15.9911L15.7237 0.721875Z" fill="#F7F9FA"/>
<path d="M18.6773 2.47651L18.0601 2.10986L8.99051 17.3791L9.60779 17.7458L18.6773 2.47651Z" fill="#F7F9FA"/>
<path d="M21.63 4.2314L21.0127 3.86475L11.9431 19.134L12.5604 19.5006L21.63 4.2314Z" fill="#F7F9FA"/>
<path d="M20.3939 12.9343L8.65625 5.96021L8.28953 6.57742L20.0272 13.5515L20.3939 12.9343Z" fill="#F0EFEF"/>
<path d="M18.2573 16.5307L6.52002 9.55688L6.1533 10.1741L17.8906 17.148L18.2573 16.5307Z" fill="#F0EFEF"/>
<path d="M22.8785 6.92274C22.692 5.69449 22.2826 4.57536 21.6821 3.61086C21.0588 2.60092 20.2218 1.75936 19.2073 1.13611C19.171 1.11336 19.1346 1.09061 19.0981 1.06786C17.6378 0.203486 15.9637 -0.142264 14.2396 0.0534239C13.5481 0.130799 12.8475 0.294549 12.147 0.549299C9.82233 1.38642 7.78883 3.11505 6.42402 5.41242C5.69608 6.64067 5.1957 7.98274 4.95002 9.34292C4.81808 10.0617 4.75895 10.7804 4.77714 11.4947C4.77714 11.5402 4.77714 11.5856 4.78164 11.6312C4.78164 11.7495 4.79077 11.8677 4.79983 11.9905C4.8362 12.5137 4.91814 13.0232 5.03183 13.5145C5.21377 14.2834 5.48677 15.0022 5.84158 15.6617C5.84614 15.6663 5.8507 15.6709 5.8507 15.68C5.96902 15.8938 6.09633 16.0985 6.22833 16.2987C6.31927 16.4352 6.41483 16.567 6.51039 16.6945C6.61045 16.8219 6.71058 16.9493 6.81977 17.0721C6.83795 17.0903 6.85164 17.1085 6.86527 17.1267C6.88802 17.1494 6.91077 17.1722 6.92895 17.1949C6.96533 17.2359 7.00627 17.2768 7.04727 17.3177C7.52039 17.8226 8.06627 18.2594 8.67133 18.6187C9.23545 18.9554 9.83139 19.2102 10.4546 19.3876C10.4728 19.3922 10.4956 19.3967 10.5138 19.4057C10.532 19.4057 10.5456 19.4149 10.5638 19.4194C11.037 19.5468 11.5191 19.6242 12.015 19.6605C12.0287 19.6605 12.0423 19.6651 12.056 19.6651C12.0605 19.6651 12.0605 19.6651 12.0605 19.6651C12.2288 19.6742 12.4016 19.6833 12.57 19.6833C12.7065 19.6833 12.8475 19.6833 12.9885 19.6742C13.1295 19.665 13.2706 19.656 13.4116 19.6423C13.5526 19.6287 13.6936 19.6105 13.8346 19.5878C13.9711 19.5741 14.1076 19.5514 14.2395 19.5195C14.2441 19.5195 14.2531 19.5195 14.2577 19.515C14.2623 19.5195 14.2668 19.515 14.2714 19.5104C14.2759 19.5104 14.285 19.5059 14.2896 19.5059C14.9811 19.3739 15.6635 19.151 16.3413 18.8462C18.3566 17.9318 20.1353 16.3077 21.3408 14.2742C22.7056 11.977 23.2516 9.36567 22.8785 6.92274ZM19.6941 12.5183C19.6395 12.6229 19.5849 12.7275 19.5258 12.8322C19.4757 12.9231 19.4256 13.0142 19.3711 13.1052C19.362 13.1188 19.3529 13.1324 19.3438 13.1461C18.7251 14.1833 17.9335 15.0886 17.0328 15.8029C16.9326 15.8802 16.8281 15.9575 16.7234 16.0349C16.6188 16.1122 16.505 16.1895 16.3959 16.2623C16.0274 16.508 15.6407 16.7218 15.2495 16.8992C14.7718 17.113 14.2941 17.2767 13.8165 17.3814C13.6618 17.4178 13.5026 17.445 13.3479 17.4678C13.1978 17.495 13.0476 17.5087 12.9021 17.5178C11.8876 17.6042 10.9095 17.4269 10.0497 16.9992C9.94508 16.9445 9.84045 16.89 9.73583 16.8263C9.6312 16.7626 9.53114 16.6989 9.43102 16.6307C8.64402 16.0802 8.02983 15.3114 7.61589 14.3789V14.3743C7.5522 14.2379 7.49308 14.1059 7.44302 13.9603C7.38845 13.8147 7.33839 13.6601 7.29289 13.5054C7.16095 13.0368 7.07002 12.5364 7.03358 12.0177C7.00177 11.5856 7.00627 11.1489 7.04727 10.7076V10.703C7.05633 10.5711 7.07458 10.4437 7.0882 10.3118C7.10639 10.1845 7.12458 10.057 7.14733 9.92974C7.34295 8.79692 7.75695 7.66874 8.37108 6.62699V6.62242C8.37564 6.6088 8.38477 6.59511 8.39383 6.58142C8.44839 6.49049 8.50302 6.40405 8.55764 6.31761C8.62133 6.21749 8.68958 6.11286 8.75783 6.01736C9.46752 4.97555 10.3364 4.12036 11.2735 3.48342C11.3827 3.40611 11.4919 3.33786 11.6056 3.26505C11.7239 3.1923 11.8421 3.12405 11.965 3.06036C12.611 2.70099 13.2842 2.44167 13.9575 2.29155C14.1122 2.25967 14.2668 2.22786 14.4261 2.20511H14.4306C14.5808 2.18242 14.7263 2.16417 14.8765 2.15505C15.8682 2.07774 16.8417 2.24599 17.7197 2.6873C17.8243 2.74192 17.929 2.79655 18.0336 2.86024C18.1382 2.9193 18.2383 2.98761 18.3338 3.0558C19.1436 3.61536 19.7578 4.39324 20.1581 5.30311C20.2263 5.43961 20.2809 5.57611 20.331 5.71717C20.3855 5.8673 20.4356 6.01736 20.4765 6.17211C20.6676 6.83174 20.7631 7.54592 20.7586 8.28292C20.7586 8.41942 20.7541 8.55592 20.745 8.69692C20.7404 8.8288 20.7313 8.96074 20.7176 9.09274C20.604 10.2255 20.2673 11.3947 19.6941 12.5183Z" fill="#C8D2A7"/>
<path opacity="0.1" d="M22.8236 6.99731L20.6307 9.19019L20.6717 9.2145C20.5578 10.3467 20.2212 11.5152 19.6484 12.6383L18.1017 11.7193L17.5778 12.2431L19.2985 13.2655C19.2983 13.2658 19.2982 13.2659 19.298 13.2663C18.6793 14.3034 17.8878 15.2087 16.987 15.923L16.9867 15.9232L15.3045 14.9237L15.9007 13.9203L13.8428 15.978L12.8566 17.638H12.8563C12.6247 17.6578 12.3956 17.6599 12.1687 17.6522L10.3363 19.4846C10.3598 19.4915 10.3826 19.5002 10.4062 19.5069C10.4045 19.5077 10.4028 19.5086 10.4011 19.5094C10.3976 19.5084 10.394 19.5078 10.3904 19.5068C10.3332 19.5354 10.2828 19.5651 10.227 19.5939L0.0848424 29.7361C0.0104674 29.9524 -0.0159701 30.1774 0.00934237 30.3986C0.0594049 30.8581 0.318717 31.2903 0.74178 31.5405L1.15122 31.7861C1.28315 31.8681 1.42422 31.9226 1.56978 31.959C2.20215 32.1091 2.88453 31.8407 3.23478 31.2539L6.64672 25.5174L6.26459 25.2899L7.99784 22.3648L8.80303 22.8424C9.02141 22.9743 9.2989 22.9152 9.41265 22.715L9.87216 21.9462C9.89947 21.9007 9.91765 21.8507 9.92222 21.8006C9.92234 21.8 9.92222 21.7996 9.92234 21.7991C10.8233 21.0016 12.7563 20.1933 14.2408 19.6269C14.2418 19.6266 14.2432 19.6261 14.244 19.6261C14.9355 19.4942 15.6178 19.2713 16.2957 18.9664C18.311 18.0521 20.0897 16.428 21.2952 14.3945C22.66 12.0972 23.2059 9.48588 22.8328 7.04294C22.8304 7.02731 22.826 7.01275 22.8236 6.99731ZM16.3501 16.3824C15.9816 16.6281 15.5949 16.8419 15.2037 17.0193C14.7268 17.2328 14.25 17.3962 13.7732 17.5008L14.9377 15.5409L16.3518 16.3812C16.3513 16.3816 16.3507 16.382 16.3501 16.3824Z" fill="#040000"/>
</g>
<defs>
<clipPath id="clip0_10_89">
<rect width="32" height="32" fill="white"/>
</clipPath>
</defs>
</svg>
