<svg width="32" height="34" viewBox="0 0 32 34" fill="none" xmlns="http://www.w3.org/2000/svg">
<g clip-path="url(#clip0_10_174)">
<path opacity="0.1" d="M19.655 3.18365C18.9588 2.65984 18.2625 2.25482 17.6323 1.97406C14.4305 0.537692 7.72689 -0.0887181 3.24939 5.70543C2.91396 6.1374 2.60396 6.56937 2.31933 7.00141C2.13127 7.28224 1.95852 7.55763 1.79077 7.8384C1.36383 8.55113 1.00302 9.24773 0.718395 9.93896C0.565957 10.29 0.428707 10.641 0.316895 10.992C0.464332 10.3278 0.682832 9.64199 0.962332 8.94539C1.22664 8.25416 1.56202 7.55763 1.95846 6.84482C2.11089 6.56399 2.27864 6.28867 2.45146 6.00246C2.71577 5.57587 3.00033 5.14383 3.31546 4.70648C7.47277 -1.08767 13.7036 -0.455878 16.6818 0.980555C17.2866 1.27215 17.9676 1.69874 18.6436 2.25496C18.9841 2.53021 19.3246 2.838 19.655 3.18365Z" fill="white"/>
<path d="M22.856 14.1243C22.7492 14.6805 22.6273 15.2205 22.49 15.7281C22.4138 16.025 22.3325 16.3112 22.2461 16.5866C21.6769 18.4226 20.9196 19.94 20.0302 21.1712V21.1766C19.959 21.2683 19.893 21.3602 19.8269 21.4466C19.1662 22.3052 18.4343 23.0017 17.6517 23.558C17.6517 23.558 17.6517 23.5633 17.6467 23.5633C17.484 23.6821 17.3214 23.7956 17.1537 23.8928C17.1486 23.8928 17.1486 23.8928 17.1486 23.8928C16.2745 24.4273 15.3495 24.7891 14.3991 24.9889C14.2365 25.0213 14.0738 25.0483 13.9061 25.07L13.9213 25.0376L12.0409 24.1304L10.1554 23.2232L1.43416 19.0113C1.37316 18.914 1.31728 18.8114 1.25628 18.7143C0.214409 16.8567 -0.232841 14.6211 0.117847 12.1426C0.153409 11.9158 0.188972 11.689 0.234722 11.4622C0.392284 10.6522 0.641284 9.80442 0.986909 8.94586C1.25628 8.25463 1.5866 7.5581 1.98303 6.8453C2.1406 6.56446 2.30322 6.28908 2.47597 6.00293C2.74028 5.57634 3.02997 5.14437 3.33997 4.70695C7.49728 -1.08713 13.7282 -0.455408 16.7063 0.981025C16.8131 1.03501 16.9249 1.089 17.0367 1.14844C17.5551 1.4292 18.1091 1.79643 18.6682 2.24998C19.4712 2.90873 20.2792 3.74578 20.9806 4.75556C21.316 5.23614 21.626 5.74913 21.8903 6.30535C22.4748 7.47715 22.8965 8.8163 23.049 10.3175C23.166 11.4891 23.1152 12.7635 22.856 14.1243Z" fill="#B84955"/>
<path d="M13.9213 25.0376L13.9061 25.07C13.779 25.0916 13.652 25.1078 13.5198 25.124C11.6292 25.3076 9.55564 25.2698 8.24952 26.1932C8.24446 26.1932 8.23933 26.1932 8.23933 26.1986C7.95983 26.4038 7.71583 26.636 7.51258 26.9383C5.71852 31.1395 4.56489 33.0025 3.82796 33.7585C3.51283 33.6667 3.18252 33.5371 2.82671 33.3643V33.3697L2.81146 33.3643C2.65389 33.2887 2.51158 33.2131 2.37439 33.1321C2.33371 33.1105 2.29814 33.0835 2.25746 33.0619C2.15077 32.9971 2.03889 32.9269 1.94233 32.8621C1.94739 32.8081 1.94739 32.7487 1.95252 32.6839C1.97789 32.4355 2.02371 32.1385 2.09989 31.7821C2.36927 30.5185 3.01977 28.5313 4.35133 25.4156C4.43777 25.0214 4.44283 24.6326 4.38689 24.2438V24.233C4.13277 22.613 2.77583 21.0201 1.69327 19.4162C1.60177 19.2812 1.51539 19.1462 1.43408 19.0112L10.1553 23.2232L12.0408 24.1304L13.9213 25.0376Z" fill="#E5C294"/>
<path d="M7.66504 22.0569L4.67667 29.0444L4.67161 29.0498L2.82673 33.3643V33.3697L2.81148 33.3643C2.65392 33.2888 2.51161 33.2131 2.37442 33.1322C2.33373 33.1106 2.29817 33.0836 2.25748 33.062C2.15079 32.9972 2.03892 32.927 1.94236 32.8622C1.90167 32.8352 1.86104 32.8082 1.83054 32.7812C1.68823 32.6839 1.56117 32.5814 1.43917 32.4842C1.14948 32.2466 0.915668 32.009 0.737793 31.7876L0.864855 31.5283L1.12404 30.9992L4.38686 24.2385V24.2331L4.45292 24.0981L5.85561 21.1875L7.66504 22.0569Z" fill="#F5DDA8"/>
<path d="M5.32148 34.0002C4.91891 34.0016 4.41423 33.9419 3.82779 33.7598C3.51523 33.6683 3.18079 33.5365 2.8291 33.3668L7.66279 22.0586L9.4721 22.9317L8.2516 26.1918L5.32148 34.0002Z" fill="#F5DDA8"/>
<g opacity="0.04">
<path d="M11.5876 1.78137C11.839 1.9027 12.1324 1.79163 12.2428 1.53331C12.3532 1.27498 12.2389 0.967214 11.9875 0.845893C11.736 0.724571 11.4427 0.835635 11.3323 1.09396C11.2219 1.35229 11.3362 1.66005 11.5876 1.78137Z" fill="#040000"/>
<path d="M15.6853 3.7583C15.9368 3.87963 16.2301 3.76859 16.3405 3.5103C16.4509 3.252 16.3366 2.94426 16.0851 2.82294C15.8337 2.70162 15.5404 2.81266 15.43 3.07095C15.3196 3.32924 15.4339 3.63698 15.6853 3.7583Z" fill="#040000"/>
<path d="M19.7825 5.73535C20.0339 5.85668 20.3272 5.74564 20.4376 5.48735C20.5481 5.22905 20.4337 4.92132 20.1823 4.79999C19.9309 4.67867 19.6376 4.78971 19.5271 5.048C19.4167 5.3063 19.5311 5.61403 19.7825 5.73535Z" fill="#040000"/>
<path d="M8.30833 3.41492C8.55975 3.53624 8.85309 3.42518 8.9635 3.16685C9.07392 2.90852 8.95961 2.60076 8.70818 2.47944C8.45675 2.35812 8.16342 2.46918 8.053 2.72751C7.94259 2.98583 8.0569 3.2936 8.30833 3.41492Z" fill="#040000"/>
<path d="M12.406 5.39197C12.6574 5.51329 12.9507 5.40223 13.0612 5.1439C13.1716 4.88557 13.0573 4.57781 12.8058 4.45649C12.5544 4.33517 12.2611 4.44623 12.1507 4.70456C12.0402 4.96288 12.1546 5.27065 12.406 5.39197Z" fill="#040000"/>
<path d="M16.5031 7.36902C16.7546 7.49034 17.0479 7.37928 17.1583 7.12095C17.2687 6.86263 17.1544 6.55486 16.903 6.43354C16.6516 6.31222 16.3582 6.42328 16.2478 6.68161C16.1374 6.93993 16.2517 7.2477 16.5031 7.36902Z" fill="#040000"/>
<path d="M20.6003 9.34607C20.8517 9.46739 21.1451 9.35633 21.2555 9.098C21.3659 8.83968 21.2516 8.53191 21.0002 8.41059C20.7487 8.28927 20.4554 8.40033 20.345 8.65866C20.2346 8.91698 20.3489 9.22475 20.6003 9.34607Z" fill="#040000"/>
<path d="M5.19168 5.18311C5.44311 5.30443 5.73643 5.19339 5.84683 4.9351C5.95723 4.67681 5.84291 4.36907 5.59148 4.24775C5.34005 4.12643 5.04673 4.23746 4.93633 4.49576C4.82593 4.75405 4.94025 5.06179 5.19168 5.18311Z" fill="#040000"/>
<path d="M9.28879 7.16004C9.54022 7.28136 9.83355 7.17029 9.94397 6.91197C10.0544 6.65364 9.94008 6.34588 9.68865 6.22455C9.43722 6.10323 9.14389 6.2143 9.03347 6.47262C8.92305 6.73095 9.03737 7.03872 9.28879 7.16004Z" fill="#040000"/>
<path d="M13.386 9.13709C13.6374 9.25841 13.9307 9.14734 14.0411 8.88902C14.1516 8.63069 14.0372 8.32293 13.7858 8.20161C13.5344 8.08028 13.2411 8.19135 13.1306 8.44967C13.0202 8.708 13.1345 9.01577 13.386 9.13709Z" fill="#040000"/>
<path d="M17.4837 11.1143C17.7351 11.2356 18.0284 11.1245 18.1388 10.8663C18.2492 10.608 18.1349 10.3002 17.8835 10.1789C17.632 10.0576 17.3387 10.1686 17.2283 10.4269C17.1179 10.6852 17.2322 10.9929 17.4837 11.1143Z" fill="#040000"/>
<path d="M21.5808 13.0911C21.8323 13.2124 22.1256 13.1014 22.236 12.8431C22.3464 12.5848 22.2321 12.277 21.9806 12.1557C21.7292 12.0344 21.4359 12.1454 21.3255 12.4037C21.2151 12.662 21.3294 12.9697 21.5808 13.0911Z" fill="#040000"/>
<path d="M6.0095 8.79358C6.26092 8.9149 6.55426 8.80384 6.66467 8.54551C6.77509 8.28719 6.66078 7.97942 6.40935 7.8581C6.15792 7.73678 5.86459 7.84784 5.75417 8.10617C5.64376 8.36449 5.75807 8.67226 6.0095 8.79358Z" fill="#040000"/>
<path d="M10.1067 10.7706C10.3581 10.892 10.6514 10.7809 10.7618 10.5226C10.8723 10.2642 10.7579 9.95647 10.5065 9.83515C10.2551 9.71383 9.96176 9.82489 9.85134 10.0832C9.74093 10.3415 9.85524 10.6493 10.1067 10.7706Z" fill="#040000"/>
<path d="M14.2044 12.7476C14.4558 12.8689 14.7491 12.7578 14.8595 12.4996C14.9699 12.2413 14.8556 11.9335 14.6042 11.8122C14.3527 11.6909 14.0594 11.8019 13.949 12.0602C13.8386 12.3185 13.9529 12.6262 14.2044 12.7476Z" fill="#040000"/>
<path d="M18.3015 14.7247C18.5529 14.8461 18.8462 14.735 18.9567 14.4767C19.0671 14.2183 18.9528 13.9106 18.7013 13.7893C18.4499 13.6679 18.1566 13.779 18.0462 14.0373C17.9357 14.2956 18.0501 14.6034 18.3015 14.7247Z" fill="#040000"/>
<path d="M2.89231 10.5616C3.14374 10.683 3.43707 10.5719 3.54749 10.3136C3.6579 10.0553 3.54359 9.74749 3.29216 9.62617C3.04074 9.50484 2.7474 9.61591 2.63699 9.87424C2.52657 10.1326 2.64088 10.4403 2.89231 10.5616Z" fill="#040000"/>
<path d="M6.98953 12.5388C7.24096 12.6601 7.53428 12.5491 7.64468 12.2908C7.75508 12.0325 7.64076 11.7248 7.38933 11.6035C7.1379 11.4821 6.84458 11.5932 6.73418 11.8515C6.62378 12.1098 6.7381 12.4175 6.98953 12.5388Z" fill="#040000"/>
<path d="M11.0871 14.516C11.3386 14.6373 11.6319 14.5263 11.7423 14.2679C11.8527 14.0096 11.7384 13.7018 11.487 13.5805C11.2356 13.4592 10.9422 13.5703 10.8318 13.8286C10.7214 14.0869 10.8357 14.3947 11.0871 14.516Z" fill="#040000"/>
<path d="M15.1844 16.4929C15.4358 16.6142 15.7291 16.5032 15.8395 16.2449C15.9499 15.9866 15.8356 15.6789 15.5842 15.5576C15.3327 15.4362 15.0394 15.5473 14.929 15.8056C14.8186 16.0639 14.9329 16.3716 15.1844 16.4929Z" fill="#040000"/>
<path d="M19.2815 18.47C19.5329 18.5913 19.8263 18.4803 19.9367 18.222C20.0471 17.9637 19.9328 17.6559 19.6813 17.5346C19.4299 17.4133 19.1366 17.5243 19.0262 17.7826C18.9158 18.0409 19.0301 18.3487 19.2815 18.47Z" fill="#040000"/>
<path d="M3.71072 14.1724C3.96215 14.2937 4.25547 14.1827 4.36587 13.9244C4.47627 13.6661 4.36195 13.3583 4.11052 13.237C3.8591 13.1157 3.56577 13.2267 3.45537 13.485C3.34497 13.7433 3.45929 14.051 3.71072 14.1724Z" fill="#040000"/>
<path d="M7.80784 16.1493C8.05926 16.2706 8.3526 16.1596 8.46301 15.9012C8.57343 15.6429 8.45912 15.3351 8.20769 15.2138C7.95626 15.0925 7.66293 15.2036 7.55251 15.4619C7.4421 15.7202 7.55641 16.028 7.80784 16.1493Z" fill="#040000"/>
<path d="M11.9051 18.1262C12.1565 18.2475 12.4498 18.1365 12.5602 17.8782C12.6706 17.6199 12.5563 17.3122 12.3049 17.1909C12.0534 17.0695 11.7601 17.1806 11.6497 17.4389C11.5393 17.6972 11.6536 18.0049 11.9051 18.1262Z" fill="#040000"/>
<path d="M16.0027 20.1035C16.2541 20.2248 16.5475 20.1138 16.6579 19.8555C16.7683 19.5972 16.6539 19.2895 16.4025 19.1682C16.1511 19.0468 15.8578 19.1579 15.7474 19.4162C15.637 19.6745 15.7513 19.9822 16.0027 20.1035Z" fill="#040000"/>
<path d="M20.0292 21.1738C19.9613 21.2657 19.8934 21.3576 19.8242 21.4461C19.83 21.4293 19.8363 21.4114 19.8438 21.3939C19.8845 21.2987 19.9494 21.2236 20.0292 21.1738Z" fill="#040000"/>
<path d="M0.593533 15.9404C0.844961 16.0618 1.13828 15.9507 1.24868 15.6924C1.35909 15.4341 1.24476 15.1264 0.993336 15.0051C0.741908 14.8838 0.448587 14.9948 0.338185 15.2531C0.227782 15.5114 0.342106 15.8191 0.593533 15.9404Z" fill="#040000"/>
<path d="M4.6907 17.9175C4.94213 18.0388 5.23545 17.9278 5.34585 17.6695C5.45626 17.4112 5.34193 17.1034 5.0905 16.9821C4.83908 16.8608 4.54576 16.9718 4.43535 17.2301C4.32495 17.4884 4.43927 17.7962 4.6907 17.9175Z" fill="#040000"/>
<path d="M8.78782 19.8947C9.03925 20.016 9.33258 19.9049 9.44299 19.6466C9.55341 19.3883 9.4391 19.0805 9.18767 18.9592C8.93624 18.8379 8.64291 18.9489 8.53249 19.2072C8.42208 19.4656 8.53639 19.7733 8.78782 19.8947Z" fill="#040000"/>
<path d="M12.8855 21.8717C13.1369 21.993 13.4302 21.882 13.5407 21.6236C13.6511 21.3653 13.5368 21.0575 13.2853 20.9362C13.0339 20.8149 12.7406 20.926 12.6302 21.1843C12.5197 21.4426 12.634 21.7504 12.8855 21.8717Z" fill="#040000"/>
<path d="M16.9826 23.8488C17.2341 23.9701 17.5274 23.859 17.6378 23.6007C17.7482 23.3424 17.6339 23.0346 17.3825 22.9133C17.1311 22.792 16.8377 22.903 16.7273 23.1613C16.6169 23.4197 16.7312 23.7274 16.9826 23.8488Z" fill="#040000"/>
</g>
<path opacity="0.06" d="M22.9443 9.63525L1.43994 32.4837C1.5605 32.5835 1.68782 32.6835 1.82832 32.7828C1.86325 32.8056 1.90069 32.8355 1.94025 32.8606C2.04038 32.9266 2.14975 32.9972 2.25657 33.0607C2.42863 33.1674 2.60957 33.2666 2.81313 33.3649L2.827 33.3716L2.82913 33.3667C3.18082 33.5364 3.51525 33.6681 3.82775 33.7596C4.41413 33.9417 4.91888 34.0014 5.32144 34L8.25163 26.1917C9.5565 25.2675 11.6276 25.3061 13.5203 25.1222C13.6494 25.1074 13.7786 25.0926 13.9051 25.0707L13.9198 25.0363L12.0421 24.1301L13.9218 25.0373L13.9071 25.0717C14.0721 25.0504 14.2344 25.0219 14.3987 24.9886C15.3498 24.7892 16.2769 24.43 17.1465 23.8948C17.1481 23.8939 17.1496 23.8926 17.1513 23.8916C17.3536 23.9101 17.5513 23.8026 17.6374 23.6009C17.6428 23.5883 17.6413 23.5747 17.6457 23.5619C17.6462 23.5616 17.6466 23.5613 17.6471 23.561C17.6518 23.5633 17.6539 23.5584 17.6539 23.5584C18.4338 23.0036 19.1647 22.3065 19.8269 21.4459C19.8929 21.3591 19.9609 21.2674 20.029 21.1757C20.9189 19.9446 21.6782 18.4249 22.2445 16.5869C22.3341 16.3099 22.4161 16.0233 22.4908 15.7272C22.6276 15.2179 22.7469 14.6823 22.858 14.1252C23.1175 12.7618 23.1641 11.4914 23.0471 10.3199C23.0237 10.0849 22.9806 9.86216 22.9443 9.63525Z" fill="#040000"/>
<path d="M21.2974 31.0346C22.8597 31.0346 24.1261 29.689 24.1261 28.0292C24.1261 26.3693 22.8597 25.0237 21.2974 25.0237C19.7352 25.0237 18.4688 26.3693 18.4688 28.0292C18.4688 29.689 19.7352 31.0346 21.2974 31.0346Z" fill="#E88A3E"/>
<path opacity="0.1" d="M21.2974 25.0237C19.7352 25.0237 18.4688 26.3693 18.4688 28.0291C18.4688 28.859 18.7853 29.6104 19.2972 30.1543L23.2976 25.904C22.7857 25.36 22.0786 25.0237 21.2974 25.0237Z" fill="#FBDCC5"/>
</g>
<defs>
<clipPath id="clip0_10_174">
<rect width="32" height="34" fill="white"/>
</clipPath>
</defs>
</svg>
