<svg width="211" height="90" viewBox="0 0 211 90" fill="none" xmlns="http://www.w3.org/2000/svg">
<path d="M0 0H211V89.1509H0V0Z" fill="#F2F2F2"/>
<path d="M0 45V90H105.5H211V45V0H105.5H0V45ZM38.9491 26.5345C38.0291 33.2069 37.9064 33.3621 33.4901 33.3621C28.0311 33.3621 27.7244 33.9828 29.1965 42.5172C31.282 54.8534 30.6686 58.8879 26.1297 63.1552C24.6576 64.5517 23.5535 64.7845 17.9105 64.7845H11.3474L11.5314 62.8448C11.5927 61.7586 11.9608 59.5862 12.3288 57.9569L12.9422 55.0862H16.3157C22.5721 55.0862 22.9401 54 20.916 41.6638C19.5666 33.75 19.9959 29.9483 22.6334 26.6897C24.9642 23.7414 26.007 23.3535 32.9994 23.3535L39.3785 23.2759L38.9491 26.5345ZM80.9651 33.3621V35.6897H77.2849C73.482 35.6897 73.0526 35.2241 73.9727 32.2759C74.2794 31.3448 75.1994 31.0345 77.6529 31.0345C80.9038 31.0345 80.9651 31.0345 80.9651 33.3621ZM114.701 32.1207C114.701 35.069 113.965 35.6897 110.652 35.6897C107.585 35.6897 107.34 35.5345 107.34 33.9052C107.34 31.3448 107.769 31.0345 111.45 31.0345C113.842 31.0345 114.701 31.3448 114.701 32.1207ZM139.603 36.8535C139.235 40.9655 139.297 41.1207 140.401 40.3448C143.529 38.25 148.007 40.6552 148.681 44.8448C148.865 46.0086 148.559 50.9741 147.945 55.8621L146.903 64.7845L143.284 65.0172L139.665 65.25L140.094 61.1379C141.321 48.3362 141.321 47.3276 139.972 47.3276C138.561 47.3276 138.499 47.6379 137.395 58.3448L136.659 65.1724H133.04C130.526 65.1724 129.422 64.8621 129.422 64.1638C129.422 62.7672 132.55 34.681 132.795 33.5172C132.979 32.8966 134.267 32.5862 136.537 32.5862H140.033L139.603 36.8535ZM44.4695 35.6121C44.1015 37.7069 44.2241 37.9397 45.8189 38.1724C47.3523 38.4052 47.5363 38.7155 47.3523 40.7328C47.107 44.4569 46.739 45 44.8375 45C42.8747 45 42.8747 45 41.3413 52.9914C40.8506 55.6293 41.9547 57.4138 43.9788 57.4138C45.4509 57.4138 45.4509 57.569 45.0829 60.6724C44.4695 65.1724 44.4695 65.1724 41.2799 65.1724C38.9491 65.1724 38.2131 64.7845 36.4343 62.5345C33.8581 59.2759 33.7968 57.8793 35.8823 45.3879C38.0904 32.2759 37.5997 33.3621 41.464 33.3621H44.8988L44.4695 35.6121ZM125.373 36.3879C125.005 38.4828 125.189 38.7155 126.723 38.9483C128.072 39.1034 128.44 39.569 128.317 40.7328C127.827 45.1552 127.581 45.6983 125.619 45.931C123.717 46.1638 123.594 46.319 122.736 51.4397C121.754 57.2586 122.061 58.1897 125.005 58.1897C126.416 58.1897 126.416 58.0345 125.435 63.7759C125.128 65.7155 124.821 65.9483 122.613 65.9483C118.197 65.9483 115.314 62.6121 115.314 57.4138C115.314 55.3966 118.013 37.7069 118.688 35.069C118.872 34.5259 120.16 34.1379 122.306 34.1379H125.741L125.373 36.3879ZM64.4041 39.569C71.3352 43.9914 70.6605 58.1897 63.2387 63.4655C59.9265 65.8707 54.2834 65.7931 51.5233 63.3879C47.9657 60.3621 46.923 57.8793 46.923 52.4483C46.923 48.4914 47.2297 47.0172 48.5791 44.3793C52.014 37.8621 58.5157 35.8448 64.4041 39.569ZM167.328 39.1035C167.696 39.3362 168.125 39.2586 168.371 38.7931C168.861 37.7845 175.424 37.7845 175.424 38.7931C175.424 39.4914 172.296 58.8879 171.438 63.3879C171.131 65.0172 170.824 65.0948 163.893 65.0948C157.575 65.0948 156.471 64.8621 154.754 63.3879C147.455 57.1034 151.074 40.5 160.274 38.0948C162.237 37.5517 166.04 38.0948 167.328 39.1035ZM79.9224 39.181C79.9224 39.569 79.2477 43.6035 78.5116 48.1035C77.7142 52.6035 76.7942 58.1897 76.4262 60.5172L75.7515 64.7845L72.7459 65.0172C71.0898 65.1724 69.5564 65.0172 69.2497 64.6293C68.943 64.2414 69.1884 61.5259 69.6791 58.5776C70.1698 55.5517 71.0285 50.3534 71.5805 46.9397C72.9299 38.0948 73.0526 37.8621 76.8555 38.1724C78.6343 38.3276 79.9837 38.7155 79.9224 39.181ZM90.8404 41.5086L92.0672 45L94.0299 41.7414C95.9927 38.4828 96.1154 38.4052 100.164 38.1724C102.801 38.0172 104.273 38.25 104.273 38.7931C104.273 39.2586 102.985 41.431 101.39 43.681C99.7956 45.931 97.8328 48.6466 96.9741 49.8879L95.4407 51.9828L98.0169 58.1121C99.4276 61.4483 100.593 64.3966 100.593 64.7069C100.593 64.9397 98.9369 65.1724 96.9128 65.1724H93.2326L91.9445 61.9138L90.5951 58.5776L88.3256 61.9138C86.0561 65.0948 85.9334 65.1724 81.9465 65.1724C79.7384 65.1724 77.8983 64.9397 77.8983 64.7069C77.8983 64.3966 79.9837 61.2155 82.4986 57.6466L87.1602 51.1293L84.6453 45.3103C83.2959 42.2069 82.1919 39.2586 82.1919 38.7931C82.1919 38.3276 83.848 38.0172 85.9334 38.0172H89.6137L90.8404 41.5086ZM113.474 38.9483C113.474 39.4914 112.738 44.1466 111.879 49.2672C111.02 54.3879 110.162 59.9741 109.916 61.681L109.487 64.7845L105.929 65.0172C102.985 65.25 102.433 65.0172 102.433 63.931C102.433 62.7672 103.476 56.5603 105.929 43.2155L106.849 38.0172H110.162C112.431 38.0172 113.474 38.3276 113.474 38.9483ZM184.012 38.7931C184.012 39.3362 184.38 39.3362 185.177 38.7931C185.852 38.4052 187.631 38.0172 189.225 38.0172C193.396 38.0172 195.052 40.3448 195.052 46.319C194.991 50.5862 193.274 62.4569 192.353 64.319C192.108 64.7845 190.391 65.1724 188.489 65.1724H185.116L185.545 61.4483C185.729 59.431 186.342 55.7069 186.833 53.2241C187.631 49.1897 187.631 48.4914 186.894 47.4828C186.342 46.8621 185.484 46.6293 184.686 46.9397C183.337 47.4828 182.969 48.7241 181.067 58.9655L180.025 64.7845L177.326 65.0172C172.91 65.4052 172.91 65.4052 174.259 57.2586C175.915 47.3276 177.387 39.2586 177.694 38.5603C178.062 37.7069 184.012 37.9397 184.012 38.7931Z" fill="#0163C5"/>
<path d="M55.284 47.6232C53.5679 49.8761 53.5066 54.3821 55.0389 56.1689C57.7969 59.2765 61.9034 56.2466 61.9034 51.1191C61.9034 46.1471 57.9195 44.0495 55.284 47.6232Z" fill="#0163C5"/>
<path d="M159.049 47.7785C156.229 51.2745 157.884 57.4896 161.623 57.4896C165.362 57.4896 167.691 49.6431 164.749 47.0793C162.788 45.2925 160.765 45.5256 159.049 47.7785Z" fill="#0163C5"/>
</svg>
