<svg width="32" height="34" viewBox="0 0 32 34" fill="none" xmlns="http://www.w3.org/2000/svg">
<g clip-path="url(#clip0_10_255)">
<path d="M31.9964 17.0002C31.9959 20.362 31.0573 23.6481 29.2992 26.443C27.541 29.238 25.0423 31.4162 22.119 32.7024C19.1958 33.9885 15.9793 34.3248 12.8762 33.6687C9.77303 33.0126 6.92265 31.3936 4.68551 29.0164C2.44837 26.6392 0.924936 23.6105 0.307787 20.3133C-0.309362 17.0162 0.00748664 13.5987 1.21833 10.4928C2.42917 7.38704 4.47962 4.73245 7.11036 2.86476C9.74109 0.997067 12.834 9.68614e-05 15.998 0C20.2412 0.000519342 24.3104 1.79186 27.3106 4.97997C30.3108 8.16807 31.9964 12.4918 31.9964 17.0002Z" fill="#B9D613"/>
<path d="M18.1432 0.168902C17.4394 0.0632829 16.7298 0.00702537 16.019 0.000488281C15.021 3.81378 12.9858 7.22924 10.1686 9.8189C7.35142 12.4086 3.8776 14.0572 0.182386 14.5582C0.0756152 15.3095 0.0169696 16.0677 0.00683594 16.8274L0.0911516 16.8147C4.31928 16.2981 8.30251 14.4388 11.5207 11.4796C14.7388 8.52042 17.0423 4.5989 18.1303 0.227171L18.1432 0.168902ZM31.8382 17.1535C28.0642 18.1393 24.6225 20.2205 21.8976 23.1646C19.1727 26.1088 17.2719 29.7999 16.4074 33.8257L16.3748 33.9789C17.1188 33.9599 17.8606 33.8855 18.5948 33.7562C19.4358 30.3571 21.0978 27.2503 23.4162 24.7434C25.7345 22.2365 28.629 20.4164 31.8128 19.4633C31.9217 18.6851 31.9814 17.9 31.9916 17.1133L31.8382 17.1535Z" fill="#F7F7F7"/>
</g>
<defs>
<clipPath id="clip0_10_255">
<rect width="32" height="34" fill="white"/>
</clipPath>
</defs>
</svg>
