<svg width="630" height="212" viewBox="0 0 630 212" fill="none" xmlns="http://www.w3.org/2000/svg">
<rect width="630" height="212" fill="#D9D9D9"/>
<path d="M0 106V212H315H630V106V7.27177e-06H315H0V106ZM116.294 62.5035C113.547 78.2207 113.18 78.5862 99.9942 78.5862C83.6948 78.5862 82.7791 80.0483 87.1744 100.152C93.4012 129.21 91.5698 138.714 78.0174 148.766C73.6221 152.055 70.3256 152.603 53.4767 152.603H33.8808L34.4302 148.034C34.6134 145.476 35.7122 140.359 36.811 136.521L38.6424 129.759H48.7151C67.3953 129.759 68.4942 127.2 62.4506 98.1414C58.4215 79.5 59.7035 70.5448 67.5785 62.869C74.5378 55.9241 77.6512 55.0104 98.5291 55.0104L117.576 54.8276L116.294 62.5035ZM241.744 78.5862V84.069H230.756C219.401 84.069 218.119 82.9724 220.866 76.0276C221.782 73.8345 224.529 73.1035 231.855 73.1035C241.561 73.1035 241.744 73.1035 241.744 78.5862ZM342.471 75.6621C342.471 82.6069 340.273 84.069 330.384 84.069C321.227 84.069 320.494 83.7035 320.494 79.8655C320.494 73.8345 321.776 73.1035 332.765 73.1035C339.907 73.1035 342.471 73.8345 342.471 75.6621ZM416.826 86.8103C415.727 96.4966 415.91 96.8621 419.206 95.0345C428.547 90.1 441.916 95.7655 443.93 105.634C444.48 108.376 443.564 120.072 441.733 131.586L438.619 152.603L427.814 153.152L417.009 153.7L418.291 144.014C421.953 113.859 421.953 111.483 417.924 111.483C413.712 111.483 413.529 112.214 410.233 137.434L408.035 153.517H397.23C389.721 153.517 386.424 152.786 386.424 151.141C386.424 147.852 395.765 81.6931 396.497 78.9517C397.047 77.4897 400.892 76.7586 407.669 76.7586H418.108L416.826 86.8103ZM132.776 83.8862C131.677 88.8207 132.044 89.369 136.805 89.9172C141.384 90.4655 141.933 91.1966 141.384 95.9483C140.651 104.721 139.552 106 133.875 106C128.015 106 128.015 106 123.436 124.824C121.971 131.038 125.267 135.241 131.311 135.241C135.706 135.241 135.706 135.607 134.608 142.917C132.776 153.517 132.776 153.517 123.253 153.517C116.294 153.517 114.096 152.603 108.785 147.303C101.093 139.628 100.91 136.338 107.137 106.914C113.73 76.0276 112.265 78.5862 123.802 78.5862H134.058L132.776 83.8862ZM374.337 85.7138C373.238 90.6483 373.788 91.1966 378.366 91.7448C382.395 92.1103 383.494 93.2069 383.128 95.9483C381.663 106.366 380.93 107.645 375.07 108.193C369.392 108.741 369.026 109.107 366.462 121.169C363.532 134.876 364.448 137.069 373.238 137.069C377.451 137.069 377.451 136.703 374.52 150.228C373.605 154.797 372.689 155.345 366.096 155.345C352.91 155.345 344.302 147.486 344.302 135.241C344.302 130.49 352.36 88.8207 354.375 82.6069C354.924 81.3276 358.77 80.4138 365.18 80.4138H375.436L374.337 85.7138ZM192.297 93.2069C212.991 103.624 210.977 137.069 188.817 149.497C178.927 155.162 162.078 154.979 153.837 149.314C143.215 142.186 140.102 136.338 140.102 123.545C140.102 114.224 141.017 110.752 145.047 104.538C155.302 89.1862 174.715 84.4345 192.297 93.2069ZM499.605 92.1103C500.703 92.6586 501.985 92.4759 502.718 91.3793C504.183 89.0035 523.779 89.0035 523.779 91.3793C523.779 93.0241 514.439 138.714 511.875 149.314C510.959 153.152 510.044 153.334 489.349 153.334C470.485 153.334 467.189 152.786 462.061 149.314C440.267 134.51 451.073 95.4 478.544 89.7345C484.404 88.4552 495.759 89.7345 499.605 92.1103ZM238.631 92.2931C238.631 93.2069 236.616 102.71 234.419 113.31C232.038 123.91 229.291 137.069 228.192 142.552L226.177 152.603L217.203 153.152C212.259 153.517 207.68 153.152 206.765 152.238C205.849 151.324 206.581 144.928 208.047 137.983C209.512 130.855 212.076 118.61 213.724 110.569C217.753 89.7345 218.119 89.1862 229.474 89.9172C234.785 90.2828 238.814 91.1966 238.631 92.2931ZM271.23 97.7759L274.892 106L280.753 98.3241C286.613 90.6483 286.98 90.4655 299.067 89.9172C306.942 89.5517 311.337 90.1 311.337 91.3793C311.337 92.4759 307.491 97.5931 302.73 102.893C297.968 108.193 292.108 114.59 289.544 117.514L284.965 122.448L292.657 136.886C296.869 144.745 300.349 151.69 300.349 152.421C300.349 152.969 295.404 153.517 289.36 153.517H278.372L274.526 145.841L270.497 137.983L263.721 145.841C256.945 153.334 256.578 153.517 244.674 153.517C238.081 153.517 232.587 152.969 232.587 152.421C232.587 151.69 238.814 144.197 246.323 135.79L260.241 120.438L252.733 106.731C248.703 99.4207 245.407 92.4759 245.407 91.3793C245.407 90.2828 250.352 89.5517 256.578 89.5517H267.567L271.23 97.7759ZM338.808 91.7448C338.808 93.0241 336.61 103.99 334.047 116.052C331.483 128.114 328.919 141.272 328.186 145.293L326.904 152.603L316.282 153.152C307.491 153.7 305.843 153.152 305.843 150.593C305.843 147.852 308.956 133.231 316.282 101.797L319.029 89.5517H328.919C335.695 89.5517 338.808 90.2828 338.808 91.7448ZM549.419 91.3793C549.419 92.6586 550.517 92.6586 552.898 91.3793C554.913 90.4655 560.224 89.5517 564.985 89.5517C577.439 89.5517 582.384 95.0345 582.384 109.107C582.201 119.159 577.073 147.121 574.326 151.507C573.593 152.603 568.465 153.517 562.788 153.517H552.715L553.997 144.745C554.547 139.993 556.378 131.221 557.843 125.372C560.224 115.869 560.224 114.224 558.026 111.848C556.378 110.386 553.814 109.838 551.433 110.569C547.404 111.848 546.305 114.772 540.628 138.897L537.515 152.603L529.456 153.152C516.27 154.066 516.27 154.066 520.299 134.876C525.244 111.483 529.64 92.4759 530.555 90.831C531.654 88.8207 549.419 89.369 549.419 91.3793Z" fill="#0066CC"/>
<path d="M165.066 112.179C159.942 117.486 159.759 128.1 164.334 132.309C172.569 139.629 184.83 132.492 184.83 120.414C184.83 108.702 172.935 103.761 165.066 112.179Z" fill="#0066CC"/>
<path d="M474.885 112.545C466.467 120.78 471.408 135.42 482.571 135.42C493.734 135.42 500.688 116.937 491.904 110.898C486.048 106.689 480.009 107.238 474.885 112.545Z" fill="#0066CC"/>
</svg>
