<svg width="32" height="32" viewBox="0 0 32 32" fill="none" xmlns="http://www.w3.org/2000/svg">
<path d="M16 1C7.716 1 1 7.716 1 16C1 24.284 7.716 31 16 31C24.284 31 31 24.284 31 16C31 7.716 24.284 1 16 1ZM22.551 17.4765C19.754 19.79 15.509 19.2725 13.0685 16.322C10.628 13.371 10.917 9.104 13.714 6.7905C16.511 4.478 20.756 4.9945 23.1965 7.946C25.637 10.8975 25.3475 15.164 22.551 17.4765Z" fill="black"/>
<path d="M20.1043 10.369C20.4753 9.64046 20.4703 8.83196 19.9863 8.05346C19.1463 6.70296 17.4588 6.44096 15.9013 7.41096C14.3298 8.38746 13.8193 10.0155 14.6593 11.367C15.1428 12.1445 15.8663 12.5065 16.6953 12.489C16.1408 13.398 16.1193 14.3905 16.6848 15.2995C17.5773 16.734 19.3418 17.0465 21.1818 15.903C23.0218 14.7585 23.5218 13.038 22.6293 11.602C22.0633 10.6945 21.1648 10.2745 20.1043 10.369ZM16.0233 10.635C15.5768 9.91696 15.7918 9.03746 16.5993 8.53546C17.3963 8.04046 18.2983 8.24146 18.7368 8.94646C19.1763 9.65246 18.9653 10.5635 18.1693 11.059C17.3623 11.5615 16.4703 11.3525 16.0233 10.635ZM20.4303 14.6955C19.5448 15.2465 18.5553 15.0325 18.0718 14.254C17.6028 13.501 17.8708 12.555 18.7563 12.004C19.6428 11.453 20.6158 11.6435 21.0768 12.385C21.5533 13.1505 21.3163 14.1435 20.4303 14.6955Z" fill="black"/>
</svg>
