<svg width="32" height="34" viewBox="0 0 32 34" fill="none" xmlns="http://www.w3.org/2000/svg">
<g clip-path="url(#clip0_10_220)">
<path d="M31.1994 22.3619C31.4848 25.2052 30.8047 26.771 30.0103 27.6323C29.232 28.4764 27.9417 28.4428 27.1942 27.5684C25.8004 25.9386 23.1266 23.0829 21.5018 23.0829C19.2277 23.0829 16 23.0829 16 23.0829C16 23.0829 15.1931 23.0829 14.1016 23.0829C13.0108 23.0829 11.6353 23.0829 10.4983 23.0829C8.87354 23.0829 6.19967 25.9386 4.80592 27.5684C4.05842 28.4429 2.76811 28.4764 1.9898 27.6323C1.19536 26.771 0.515365 25.2052 0.800677 22.3619C1.23199 18.0596 2.56049 13.9045 3.27792 11.8959C3.55742 11.1134 4.07092 10.4541 4.73548 10.0176C4.84773 9.94354 4.96511 9.87574 5.08611 9.81491C6.3706 9.1703 8.65635 8.32781 12.2611 7.96536C13.3776 7.85314 14.621 7.78687 16.0001 7.78687C17.3792 7.78687 18.6226 7.85314 19.7391 7.96536C23.3438 8.32781 25.6296 9.1703 26.9141 9.81491C27.0351 9.87567 27.1525 9.94354 27.2647 10.0176C27.9293 10.4541 28.4428 11.1134 28.7222 11.8959C29.4396 13.9045 30.7681 18.0596 31.1994 22.3619ZM26.6184 14.0744C26.6184 13.6442 26.2898 13.295 25.8848 13.295C25.4799 13.295 25.1513 13.6442 25.1513 14.0744C25.1513 14.5046 25.4799 14.8538 25.8848 14.8538C26.2897 14.8538 26.6184 14.5046 26.6184 14.0744ZM25.2246 12.5935C25.2246 12.1633 24.8959 11.8141 24.491 11.8141C24.0861 11.8141 23.7574 12.1633 23.7574 12.5935C23.7574 13.0238 24.0861 13.3729 24.491 13.3729C24.8959 13.3729 25.2246 13.0238 25.2246 12.5935ZM25.2246 15.5553C25.2246 15.1251 24.8959 14.7759 24.491 14.7759C24.0861 14.7759 23.7574 15.1251 23.7574 15.5553C23.7574 15.9856 24.0861 16.3347 24.491 16.3347C24.8959 16.3347 25.2246 15.9856 25.2246 15.5553ZM23.8308 14.0744C23.8308 13.6442 23.5022 13.295 23.0973 13.295C22.6923 13.295 22.3637 13.6442 22.3637 14.0744C22.3637 14.5046 22.6923 14.8538 23.0973 14.8538C23.5022 14.8538 23.8308 14.5046 23.8308 14.0744ZM21.9294 18.7508C21.9294 17.5451 21.0103 16.5685 19.8755 16.5685C18.7414 16.5685 17.8215 17.545 17.8215 18.7508C17.8215 19.9558 18.7413 20.9332 19.8755 20.9332C21.0103 20.9332 21.9294 19.9559 21.9294 18.7508ZM9.85941 14.0744C9.85941 12.8687 8.93954 11.892 7.80541 11.892C6.6706 11.892 5.75142 12.8686 5.75142 14.0744C5.75142 15.2793 6.67054 16.2568 7.80541 16.2568C8.93954 16.2568 9.85941 15.2794 9.85941 14.0744Z" fill="#E1EAF6"/>
<path d="M27.2724 8.14774V10.0035L27.2644 10.0175C27.1521 9.94349 27.0348 9.87569 26.9138 9.81487C25.6293 9.17026 23.3435 8.32777 19.7388 7.96532L19.741 7.94507L21.3453 6.23896C21.7172 5.84305 22.252 5.67464 22.7669 5.79158L26.0437 6.53434C26.7597 6.6965 27.2724 7.36913 27.2724 8.14774Z" fill="#5A5D6F"/>
<path d="M19.8753 16.5686C21.0101 16.5686 21.9293 17.5452 21.9293 18.751C21.9293 19.9559 21.0102 20.9333 19.8753 20.9333C18.7412 20.9333 17.8213 19.956 17.8213 18.751C17.8213 17.5452 18.7412 16.5686 19.8753 16.5686Z" fill="#9DA6BA"/>
<path d="M12.259 7.94507L12.2612 7.96532C8.65647 8.32777 6.37072 9.17026 5.08623 9.81487C4.96516 9.87563 4.84779 9.94349 4.7356 10.0175L4.72754 10.0035V8.14774C4.72754 7.36913 5.24029 6.6965 5.95622 6.53434L9.23303 5.79158C9.74797 5.67464 10.2828 5.84305 10.6547 6.23896L12.259 7.94507Z" fill="#5A5D6F"/>
<path d="M7.80546 11.8921C8.93952 11.8921 9.85946 12.8687 9.85946 14.0745C9.85946 15.2794 8.93958 16.2568 7.80546 16.2568C6.67065 16.2568 5.75146 15.2795 5.75146 14.0745C5.75153 12.8687 6.67065 11.8921 7.80546 11.8921Z" fill="#9DA6BA"/>
<path d="M25.8849 14.8537C26.2899 14.8537 26.6185 14.5046 26.6185 14.0743C26.6185 13.6441 26.2899 13.2949 25.8849 13.2949C25.48 13.2949 25.1514 13.6441 25.1514 14.0743C25.1513 14.5046 25.48 14.8537 25.8849 14.8537Z" fill="black"/>
<path d="M24.4909 13.373C24.8958 13.373 25.2244 13.0239 25.2244 12.5936C25.2244 12.1634 24.8958 11.8142 24.4909 11.8142C24.0859 11.8142 23.7573 12.1634 23.7573 12.5936C23.7573 13.0239 24.0859 13.373 24.4909 13.373Z" fill="black"/>
<path d="M24.4909 16.3347C24.8958 16.3347 25.2244 15.9855 25.2244 15.5553C25.2244 15.125 24.8958 14.7759 24.4909 14.7759C24.0859 14.7759 23.7573 15.125 23.7573 15.5553C23.7573 15.9855 24.0859 16.3347 24.4909 16.3347Z" fill="black"/>
<path d="M23.8309 14.0743C23.8309 13.6441 23.5023 13.2949 23.0973 13.2949C22.6924 13.2949 22.3638 13.6441 22.3638 14.0743C22.3638 14.5046 22.6924 14.8537 23.0973 14.8537C23.5023 14.8537 23.8309 14.5046 23.8309 14.0743Z" fill="black"/>
<path d="M1.46565 28.1775C1.98271 28.7383 2.67752 29.037 3.41658 29.0241C4.15102 29.0094 4.85533 28.6696 5.34883 28.0923C8.01613 24.9733 9.75782 23.8621 10.4983 23.8621H21.5017C22.2422 23.8621 23.9839 24.9735 26.651 28.0921C27.1447 28.6696 27.849 29.0094 28.5834 29.0241C28.601 29.0244 28.6185 29.0246 28.6359 29.0246C29.357 29.0246 30.0295 28.725 30.5342 28.1777C31.723 26.8889 32.1923 24.9044 31.9288 22.2792C31.7287 20.2838 31.3203 18.1148 30.715 15.8325C30.6052 15.4183 30.2003 15.1768 29.81 15.2938C29.4201 15.4105 29.193 15.841 29.3029 16.2554C29.8858 18.4535 30.2785 20.5358 30.4699 22.4444C30.6816 24.5542 30.3415 26.1594 29.4862 27.0867C29.2548 27.3376 28.9466 27.4722 28.6111 27.4655C28.274 27.4587 27.9636 27.309 27.737 27.0441C25.0467 23.8983 22.9489 22.3033 21.5016 22.3033H10.4983C9.05107 22.3033 6.95326 23.8984 4.26289 27.0443C4.03639 27.3091 3.72602 27.4588 3.38883 27.4655C3.05521 27.4719 2.74521 27.3376 2.51352 27.0866C1.65833 26.1595 1.31827 24.5544 1.52996 22.4443C1.9494 18.2609 3.23477 14.2129 3.9637 12.1723C4.18383 11.5558 4.59489 11.026 5.12258 10.6795C5.21051 10.6215 5.3037 10.5676 5.39926 10.5196C6.62876 9.90265 8.82926 9.09323 12.33 8.74134C13.4857 8.6252 14.7204 8.56629 15.9999 8.56629C17.2793 8.56629 18.514 8.62519 19.6697 8.74127C23.1706 9.09336 25.371 9.90265 26.6004 10.5196C26.6962 10.5676 26.7892 10.6215 26.8787 10.6805C27.4049 11.026 27.8159 11.5558 28.0361 12.1724C28.1473 12.4839 28.426 12.6755 28.7221 12.6755C28.8086 12.6755 28.8965 12.6592 28.9822 12.6246C29.361 12.472 29.5515 12.0219 29.4078 11.6194C29.125 10.8276 28.6339 10.1306 28.0061 9.61717V8.1478C28.0061 7.00867 27.2452 6.00952 26.1968 5.77219L22.9203 5.02957C22.159 4.85665 21.3762 5.10288 20.8264 5.68825L19.4465 7.15569C18.3506 7.05761 17.1934 7.00761 15.9999 7.00761C14.8064 7.00761 13.6492 7.05775 12.5533 7.15576L11.1736 5.68832C10.6236 5.10301 9.84069 4.85678 9.07982 5.02944L5.80314 5.77199C4.75464 6.00939 3.99377 7.00847 3.99377 8.1476V9.6171C3.36545 10.131 2.87464 10.8278 2.59202 11.6192C1.83802 13.73 0.508023 17.9218 0.0711488 22.2791C-0.192351 24.9043 0.276836 26.8888 1.46565 28.1775ZM22.614 6.55379L25.891 7.29647C26.2665 7.38154 26.539 7.73947 26.539 8.1476V8.79002C25.3696 8.28493 23.6623 7.7315 21.3116 7.37756L21.8647 6.7894C22.0613 6.58002 22.3412 6.49183 22.614 6.55379ZM6.10907 7.29647L9.38619 6.55372C9.65869 6.49177 9.93857 6.58009 10.1356 6.78966L10.6884 7.37756C8.33782 7.73144 6.63045 8.28486 5.46095 8.78995V8.14767C5.46089 7.73947 5.73345 7.38154 6.10907 7.29647Z" fill="black"/>
<path d="M29.1356 13.0833C28.7511 13.2189 28.5428 13.6599 28.6703 14.0685L28.7156 14.2141C28.8173 14.5421 29.1041 14.75 29.4122 14.75C29.4882 14.75 29.5656 14.7373 29.6417 14.7106C30.0265 14.576 30.2358 14.1355 30.1091 13.7266L30.0627 13.5776C29.9352 13.169 29.52 12.9478 29.1356 13.0833Z" fill="black"/>
<path d="M19.8754 21.7126C21.4125 21.7126 22.663 20.384 22.663 18.7508C22.663 17.1177 21.4125 15.7891 19.8754 15.7891C18.3384 15.7891 17.0879 17.1177 17.0879 18.7508C17.0879 20.384 18.3384 21.7126 19.8754 21.7126ZM19.8754 17.3479C20.6035 17.3479 21.1959 17.9773 21.1959 18.7509C21.1959 19.5245 20.6035 20.1539 19.8754 20.1539C19.1474 20.1539 18.555 19.5245 18.555 18.7509C18.555 17.9773 19.1474 17.3479 19.8754 17.3479Z" fill="black"/>
<path d="M11.8334 21.011C12.2384 21.011 12.5669 20.662 12.5669 20.2316V19.5302H13.2271C13.6322 19.5302 13.9607 19.1811 13.9607 18.7507C13.9607 18.3204 13.6322 17.9713 13.2271 17.9713H12.5669V17.2699C12.5669 16.8395 12.2384 16.4905 11.8334 16.4905C11.4283 16.4905 11.0998 16.8395 11.0998 17.2699V17.9713H10.4396C10.0346 17.9713 9.70605 18.3204 9.70605 18.7507C9.70605 19.1811 10.0346 19.5302 10.4396 19.5302H11.0998V20.2316C11.0998 20.662 11.4282 21.011 11.8334 21.011Z" fill="black"/>
<path d="M7.80514 11.1125C6.26808 11.1125 5.01758 12.4412 5.01758 14.0743C5.01758 15.7075 6.26808 17.0361 7.80514 17.0361C9.34219 17.0361 10.5927 15.7075 10.5927 14.0743C10.5927 12.4412 9.34219 11.1125 7.80514 11.1125ZM7.80514 15.4772C7.07707 15.4772 6.4847 14.8478 6.4847 14.0743C6.4847 13.3007 7.07707 12.6713 7.80514 12.6713C8.5332 12.6713 9.12557 13.3007 9.12557 14.0743C9.12557 14.8478 8.5332 15.4772 7.80514 15.4772Z" fill="black"/>
<path d="M15.2662 13.0611C15.2662 12.6308 14.9377 12.2817 14.5326 12.2817H13.4323C13.0272 12.2817 12.6987 12.6308 12.6987 13.0611C12.6987 13.4915 13.0272 13.8406 13.4323 13.8406H14.5327C14.9378 13.8406 15.2662 13.4916 15.2662 13.0611Z" fill="black"/>
<path d="M19.3008 13.0611C19.3008 12.6308 18.9723 12.2817 18.5673 12.2817H17.467C17.0619 12.2817 16.7334 12.6308 16.7334 13.0611C16.7334 13.4915 17.0619 13.8406 17.467 13.8406H18.5673C18.9724 13.8406 19.3008 13.4916 19.3008 13.0611Z" fill="black"/>
</g>
<defs>
<clipPath id="clip0_10_220">
<rect width="32" height="34" fill="white"/>
</clipPath>
</defs>
</svg>
