<svg width="32" height="32" viewBox="0 0 32 32" fill="none" xmlns="http://www.w3.org/2000/svg">
<g clip-path="url(#clip0_10_127)">
<path d="M32 16C32 17.7874 31.7053 19.5024 31.1642 21.1063C30.8841 21.9469 30.5314 22.7585 30.1208 23.5314C30.0676 23.6329 30.0097 23.7343 29.9566 23.8358C29.6232 24.4252 29.2513 24.9952 28.8454 25.5411C28.7729 25.6377 28.7005 25.7296 28.6281 25.8262C25.7005 29.5846 21.1304 32 16 32C15.6522 32 15.3092 31.9904 14.971 31.9662C14.4879 31.9372 14.0096 31.8841 13.5411 31.8067C13.1014 31.7439 12.6667 31.657 12.2367 31.5555L7.18356 29.3526C4.17875 27.3672 1.88406 24.3913 0.763313 20.8937C0.560438 20.2609 0.396187 19.6136 0.270562 18.9517C0.25125 18.8406 0.231937 18.7295 0.212625 18.6184C0.193312 18.5025 0.174 18.3914 0.1595 18.2803C0.053125 17.5363 0 16.7729 0 16C0 14.3961 0.236688 12.8454 0.676313 11.3865C0.980687 10.3623 1.39131 9.3865 1.88406 8.46381C2.46381 7.372 3.16906 6.36237 3.97587 5.4445C4.51694 4.83094 5.10144 4.25606 5.7295 3.73438C7.38169 2.34787 9.31406 1.28994 11.43 0.661875C12.2948 0.405875 13.1884 0.217438 14.1063 0.111188C14.7247 0.038625 15.3575 0 16 0C17.6908 0 19.3141 0.260875 20.8454 0.748812C20.9952 0.792312 21.1401 0.845438 21.2851 0.89375C22.058 1.16425 22.8068 1.49281 23.5218 1.87444C23.6232 1.93237 23.7296 1.98556 23.831 2.04831C25.9372 3.22706 27.7489 4.87444 29.1305 6.85025C29.3818 7.20775 29.6136 7.57975 29.8358 7.96138C29.8986 8.06763 29.9614 8.17875 30.0194 8.28506C30.1305 8.48794 30.2368 8.69088 30.3382 8.89863C30.4348 9.09188 30.5314 9.28994 30.6136 9.488C30.6281 9.5025 30.6329 9.517 30.6378 9.53631C30.7005 9.66675 30.7537 9.80206 30.8068 9.93725C30.8647 10.0629 30.9131 10.1885 30.9614 10.3189C30.9952 10.401 31.0242 10.4831 31.0484 10.5653C31.087 10.6474 31.116 10.7344 31.145 10.8213C31.1595 10.8696 31.174 10.9179 31.1933 10.9663C31.2126 11.0388 31.2368 11.1112 31.2609 11.1788V11.1836C31.7391 12.7053 32 14.3189 32 16Z" fill="#BF974D"/>
<path opacity="0.1" d="M18.8598 8.77297C18.454 11.5556 19.4589 14.5701 21.7535 17.3817C22.1834 17.9082 22.6472 18.4203 23.1496 18.9034C25.0192 20.7343 27.3525 22.2899 29.9902 23.4687C30.0337 23.4928 30.0771 23.5122 30.1206 23.5315C30.0674 23.6329 30.0095 23.7343 29.9564 23.8358C29.6231 24.4252 29.2511 24.9953 28.8452 25.5412C28.7727 25.5073 28.6955 25.4735 28.623 25.4349C25.9419 24.1837 23.5554 22.5702 21.6037 20.6813C21.0047 20.1016 20.4442 19.4977 19.9322 18.8697C17.2752 15.6185 16.0916 12.0677 16.4926 8.71029C16.4926 8.69097 16.4974 8.67166 16.4974 8.65235C16.251 8.65235 16.0094 8.65716 15.7679 8.66685C14.7631 8.68616 13.7679 8.73935 12.7872 8.82141V8.82622C12.5456 10.7972 12.4201 12.8407 12.4201 14.9228C12.4201 19.0823 12.9176 23.0823 13.8645 26.662C14.3524 28.5267 14.9611 30.2803 15.6857 31.8793C15.6906 31.889 15.6954 31.9035 15.7002 31.9132C15.594 31.9083 15.4877 31.8987 15.3862 31.8842C15.2268 31.8745 15.0722 31.86 14.9176 31.8407C14.2558 31.7634 13.6036 31.6523 12.9707 31.4977C12.4973 30.3045 12.077 29.0436 11.7147 27.7296C10.6374 23.831 10.0674 19.459 10.0674 14.9228C10.0674 12.9373 10.1785 10.9808 10.3911 9.08228C10.1447 9.1161 9.8983 9.14991 9.65193 9.1886C9.05774 9.27554 8.46837 9.37704 7.89349 9.4881C7.78237 12.319 6.58912 15.2224 4.38624 17.9277C3.53599 18.9615 2.5698 19.9374 1.49737 20.836C1.44905 20.6813 1.40074 20.5268 1.36212 20.3722C1.15437 19.6766 0.999805 18.9567 0.893555 18.2273C1.49743 17.6572 2.05293 17.0582 2.56018 16.4398C4.26549 14.3529 5.25587 12.1548 5.49255 10.0243C5.24137 10.0872 4.99018 10.1548 4.73893 10.2321C3.57949 10.5461 2.46837 10.9133 1.41043 11.3287C1.43455 11.2466 1.45874 11.1645 1.49255 11.0823C1.78237 10.15 2.15924 9.25141 2.61818 8.40604C3.2993 8.18379 3.9998 7.98091 4.7148 7.79735C4.94668 7.73454 5.18824 7.6766 5.42499 7.6186C5.42018 7.58479 5.4153 7.5461 5.40562 7.51229C5.3573 7.22729 5.28968 6.9471 5.20755 6.66685C5.07712 6.22722 4.90805 5.79729 4.70993 5.38666C5.09643 4.94704 5.50705 4.52672 5.9418 4.1306C6.11093 3.97604 6.2848 3.82629 6.46355 3.67647C6.88387 4.40591 7.22199 5.18372 7.46355 6.00497C7.56987 6.34797 7.65199 6.70547 7.7148 7.0581C7.71962 7.08229 7.72443 7.1016 7.7293 7.12572C8.4733 6.98566 9.22206 6.86485 9.98537 6.76341C10.2269 6.7296 10.4781 6.69579 10.7245 6.66679C10.7245 6.66197 10.7245 6.65229 10.7293 6.64747C11.0771 4.52672 11.5554 2.50254 12.1641 0.603973C12.7921 0.42041 13.4346 0.27066 14.0868 0.164348C14.338 0.120848 14.5892 0.0822227 14.8404 0.0532227C14.1206 2.02422 13.5506 4.16916 13.1496 6.43485C14.2027 6.3576 15.2704 6.3141 16.3525 6.2996C16.5554 6.2996 16.7631 6.29479 16.9708 6.29479H17.0674C17.8501 4.15466 19.3138 2.31891 21.2848 0.893848C22.0577 1.16435 22.8066 1.49291 23.5216 1.87454C23.623 1.93247 23.7293 1.98566 23.8307 2.04841C21.9081 3.13535 20.4394 4.60397 19.5892 6.36247C22.8597 6.52185 26.0047 6.98079 28.9081 7.71997C29.2221 7.79241 29.5312 7.87454 29.8356 7.96154C29.8984 8.06779 29.9612 8.17891 30.0191 8.28522C30.1302 8.4881 30.2365 8.69104 30.3379 8.89879C30.4346 9.09204 30.5312 9.2901 30.6133 9.48816C30.6278 9.50266 30.6326 9.51716 30.6375 9.53647C30.7002 9.66691 30.7534 9.80222 30.8066 9.93741C30.8645 10.063 30.9128 10.1887 30.9612 10.319C30.995 10.4012 31.024 10.4833 31.0481 10.5654C31.0867 10.6475 31.1157 10.7345 31.1447 10.8215C31.1399 10.8215 31.1399 10.8215 31.1351 10.8167C30.1882 10.4978 29.2027 10.208 28.1882 9.9616C25.2944 9.24178 22.1447 8.80704 18.8693 8.68629C18.8646 8.71504 18.8598 8.74404 18.8598 8.77297Z" fill="white"/>
<path d="M14.9374 31.884C14.9277 31.8695 14.9229 31.855 14.9181 31.8405C14.2466 30.3526 13.6765 28.7294 13.2079 27.0096C12.2127 23.3574 11.6862 19.2511 11.6862 14.9806C11.6862 12.8936 11.8118 10.8501 12.0582 8.87915C12.1548 8.06752 12.2756 7.27046 12.4157 6.48783C12.8167 4.24146 13.3771 2.11583 14.0872 0.164209C14.092 0.144896 14.1017 0.130396 14.1065 0.111084C13.1886 0.217334 12.2949 0.405771 11.4302 0.661772C10.8215 2.56515 10.3384 4.59896 9.99056 6.72458C9.99056 6.73908 9.98575 6.74871 9.98575 6.76321C9.85531 7.54096 9.749 8.33327 9.65718 9.13521C9.65718 9.15452 9.65237 9.16902 9.65237 9.18833C9.44462 11.0724 9.3335 13.0096 9.3335 14.9806C9.3335 19.6038 9.92768 24.0579 11.0484 28.0144C11.3914 29.2463 11.7876 30.4298 12.2369 31.5555C12.6668 31.6569 13.1016 31.7439 13.5412 31.8067C14.0098 31.884 14.4881 31.9372 14.9712 31.9662C14.9567 31.9371 14.9471 31.913 14.9374 31.884Z" fill="#836D54"/>
<path d="M29.8068 23.7681C27.1208 22.6377 24.7344 21.1256 22.802 19.3285C22.1546 18.7294 21.5604 18.0966 21.0243 17.4348C18.7054 14.5942 17.7006 11.5507 18.1354 8.73915C18.1934 8.37684 18.2706 8.01934 18.3769 7.66665C18.5025 7.23672 18.6668 6.8164 18.86 6.41547C19.7634 4.53622 21.3866 2.98553 23.5218 1.8744C22.8068 1.49278 22.0581 1.16428 21.2851 0.893717C21.1401 0.845404 20.9952 0.792279 20.8454 0.748779C18.7392 2.1884 17.1788 4.07728 16.3527 6.29953C16.3479 6.31884 16.3382 6.33334 16.3333 6.35265C16.2561 6.56522 16.1836 6.78259 16.1208 6.99997C15.9565 7.54584 15.8406 8.1014 15.7681 8.66665C15.7681 8.68115 15.7633 8.69565 15.7633 8.71015C15.343 12.087 16.5314 15.6522 19.1981 18.9227C19.8116 19.6763 20.4879 20.3962 21.2271 21.0725C23.2319 22.9324 25.6667 24.5121 28.3913 25.7198C28.4686 25.7585 28.5508 25.7923 28.628 25.8262C28.7005 25.7295 28.7729 25.6377 28.8454 25.5411C29.2511 24.9952 29.6231 24.4252 29.9565 23.8358C29.9083 23.8164 29.8551 23.7922 29.8068 23.7681Z" fill="#836D54"/>
<path d="M7.00024 7.18362C6.9278 6.80681 6.84086 6.43 6.72974 6.05806C6.53168 5.38656 6.2708 4.744 5.9423 4.1305C5.87955 3.99525 5.80705 3.86481 5.72974 3.73438C5.10174 4.25612 4.51718 4.831 3.97611 5.4445C4.17899 5.85512 4.34324 6.28025 4.47368 6.72469C4.56549 7.03869 4.64274 7.35269 4.69593 7.6715C4.70555 7.715 4.71043 7.75362 4.71524 7.79712C4.83118 8.54587 4.84568 9.30919 4.75874 10.0773C4.75393 10.1305 4.74905 10.1787 4.73943 10.2319C4.47374 12.3188 3.49305 14.4589 1.83124 16.4928C1.32399 17.1159 0.763613 17.7101 0.164551 18.2802C0.179051 18.3913 0.193551 18.5024 0.212863 18.6184C0.232176 18.7295 0.251488 18.8406 0.270801 18.9517C0.396426 19.6135 0.560676 20.2609 0.763551 20.8937C0.966426 20.7246 1.16455 20.5507 1.36255 20.3719C2.1983 19.6231 2.96643 18.8212 3.65243 17.9806C5.8553 15.2801 7.05343 12.3767 7.16449 9.541C7.19349 8.74887 7.14036 7.95662 7.00024 7.18362Z" fill="#836D54"/>
<path d="M31.1933 10.9663C31.174 10.918 31.1546 10.8648 31.1353 10.8165C31.1112 10.7296 31.0822 10.6475 31.0484 10.5653C31.0243 10.4832 30.9953 10.4011 30.9615 10.319C30.9131 10.1885 30.8648 10.063 30.8068 9.93735C30.7537 9.8021 30.7005 9.66685 30.6378 9.53641C30.633 9.5171 30.6281 9.5026 30.6136 9.4881C30.5315 9.29003 30.4348 9.09197 30.3382 8.89872C30.2368 8.69097 30.1305 8.4881 30.0194 8.28516C29.6329 8.16922 29.2368 8.05328 28.8406 7.95185C25.7488 7.11128 22.372 6.58953 18.86 6.4156C18.0242 6.37697 17.1836 6.35278 16.3333 6.35278H16.2367C14.9468 6.35278 13.6715 6.4011 12.4155 6.48803C11.8503 6.53153 11.285 6.57985 10.7295 6.64747C10.4831 6.66678 10.2367 6.69578 9.99033 6.72478C9.22221 6.81653 8.46377 6.92766 7.71496 7.0581C7.47827 7.09672 7.23671 7.14022 6.99996 7.18372C6.45889 7.28516 5.92752 7.39147 5.40577 7.51222C5.16421 7.56053 4.93233 7.61366 4.69564 7.67166C3.72946 7.90835 2.79227 8.16928 1.88402 8.46391C1.39127 9.3866 0.980645 10.3625 0.67627 11.3866C0.946832 11.2803 1.21733 11.1788 1.49271 11.0822C2.53614 10.7006 3.62314 10.3673 4.75839 10.0774C5.54102 9.87935 6.34289 9.7006 7.16421 9.54116C7.97577 9.3866 8.81152 9.25135 9.65696 9.13541C10.4444 9.0291 11.2463 8.94216 12.058 8.87935C12.2995 8.86003 12.5459 8.84072 12.7875 8.82622C13.7681 8.7586 14.7633 8.71991 15.7633 8.71028C15.9178 8.70547 16.0773 8.70547 16.2367 8.70547C16.3237 8.70547 16.4058 8.70547 16.4928 8.71028C17.0435 8.71028 17.5894 8.72478 18.1353 8.73928C18.3768 8.74891 18.6184 8.7586 18.8599 8.7731C22.1256 8.94216 25.2512 9.42041 28.1063 10.1837C29.1981 10.4784 30.2512 10.8117 31.2609 11.1837V11.1789C31.2368 11.1112 31.2126 11.0388 31.1933 10.9663Z" fill="#836D54"/>
<path opacity="0.07" d="M31.9999 16.0001C31.9999 17.7875 31.7052 19.5025 31.1642 21.1064C30.8357 21.918 30.4443 22.7103 29.9902 23.4687C29.9323 23.5702 29.8695 23.6716 29.8067 23.7682C29.4492 24.3479 29.0578 24.9035 28.6231 25.4349C28.5507 25.5315 28.4733 25.6233 28.3912 25.7199C26.9951 27.3914 25.2511 28.8214 23.2028 29.8987C22.6714 30.1788 22.1303 30.43 21.5797 30.6475C21.3574 30.7393 21.1303 30.8214 20.9033 30.9035C20.6328 31.0002 20.3575 31.0871 20.0772 31.174C19.8405 31.2417 19.6038 31.3093 19.3623 31.3672C18.1449 31.6716 16.913 31.8455 15.686 31.8793C15.5893 31.8841 15.4879 31.8841 15.3865 31.8841C15.2367 31.8889 15.087 31.8889 14.9372 31.8841C14.4735 31.8793 14.0048 31.8551 13.5411 31.8068C13.1015 31.744 12.6667 31.6571 12.2367 31.5556L7.18359 29.3527C8.50728 28.9904 9.80197 28.546 11.0483 28.0145C11.2754 27.9227 11.4976 27.8262 11.715 27.7295C12.2223 27.5025 12.7198 27.2609 13.2078 27.0097C13.43 26.8938 13.6474 26.7778 13.8648 26.6619C16.5943 25.1692 19.0725 23.2851 21.2271 21.0725C21.3527 20.9469 21.4783 20.8165 21.6039 20.6812C22.0145 20.2416 22.4155 19.7923 22.802 19.3286C22.9227 19.1885 23.0387 19.0484 23.1498 18.9035C25.2464 16.3093 26.9323 13.3721 28.1063 10.1837C28.1401 10.1112 28.1642 10.0387 28.1884 9.9614C28.43 9.29959 28.6473 8.6329 28.8406 7.95178C28.8647 7.87447 28.8841 7.79722 28.9082 7.7199C28.9855 7.43003 29.058 7.14022 29.1304 6.85034C29.3817 7.20784 29.6135 7.57984 29.8357 7.96147C29.8985 8.06772 29.9613 8.17884 30.0193 8.28515C30.1304 8.48803 30.2367 8.69097 30.3381 8.89872C30.4347 9.09197 30.5313 9.29003 30.6135 9.48809C30.628 9.50259 30.6328 9.51709 30.6377 9.5364C30.7004 9.66684 30.7536 9.80215 30.8067 9.93734C30.8647 10.063 30.913 10.1886 30.9613 10.319C30.9952 10.4011 31.0242 10.4832 31.0483 10.5653C31.0869 10.6475 31.1159 10.7345 31.1449 10.8214C31.1594 10.8697 31.1739 10.918 31.1932 10.9663C31.2125 11.0388 31.2367 11.1113 31.2608 11.1789V11.1837C31.739 12.7054 31.9999 14.319 31.9999 16.0001Z" fill="#040000"/>
</g>
<defs>
<clipPath id="clip0_10_127">
<rect width="32" height="32" fill="white"/>
</clipPath>
</defs>
</svg>
