<svg width="32" height="32" viewBox="0 0 32 32" fill="none" xmlns="http://www.w3.org/2000/svg">
<path d="M31.8837 12.0447C31.6064 11.1539 30.8825 10.517 29.9945 10.3823L21.7746 9.13575L18.0986 1.36161C17.7014 0.521729 16.8973 0 16 0C15.1026 0 14.2985 0.521729 13.9014 1.36161L10.2254 9.13575L2.00551 10.3823C1.11749 10.517 0.393604 11.1539 0.116275 12.0447C-0.160985 12.9354 0.0658769 13.8948 0.708454 14.5486L6.65641 20.5999L5.25229 29.1445C5.10061 30.0676 5.4573 30.983 6.18334 31.5336C6.58583 31.8386 7.06148 32 7.55899 32C7.93676 32 8.31329 31.9029 8.64784 31.7194L15.9999 27.6852L23.3521 31.7194C23.6865 31.903 24.0631 32 24.4409 32C24.9385 32 25.4141 31.8387 25.8167 31.5336C26.5427 30.983 26.8994 30.0676 26.7477 29.1445L25.3436 20.5999L31.2916 14.5486C31.9341 13.8948 32.161 12.9353 31.8837 12.0447ZM29.7752 12.9251L23.4183 19.3923C23.1624 19.6527 23.0456 20.028 23.106 20.3957L24.6067 29.5277C24.6175 29.5941 24.592 29.6598 24.5398 29.6993C24.5033 29.727 24.4658 29.7328 24.4408 29.7328C24.4134 29.7328 24.3872 29.7261 24.3628 29.7127L16.5054 25.4012C16.3472 25.3144 16.1736 25.271 16 25.271C15.8264 25.271 15.6528 25.3144 15.4945 25.4013L7.63702 29.7128C7.61266 29.7262 7.58641 29.733 7.55892 29.733C7.53399 29.733 7.49647 29.7272 7.46 29.6995C7.40786 29.66 7.38231 29.5942 7.39317 29.5279L8.89384 20.3959C8.95426 20.0282 8.83746 19.6529 8.5815 19.3925L2.22465 12.9253C2.17849 12.8784 2.1622 12.8094 2.18211 12.7455C2.20209 12.6815 2.25402 12.6357 2.31785 12.6261L11.1027 11.2937C11.4565 11.24 11.7623 11.0082 11.9205 10.6736L15.8493 2.36504C15.8778 2.30473 15.9355 2.26724 16 2.26724C16.0644 2.26724 16.1222 2.30473 16.1507 2.36504L20.0793 10.6734C20.2375 11.008 20.5433 11.2399 20.8971 11.2935L29.682 12.6258C29.7458 12.6356 29.7978 12.6813 29.8177 12.7453C29.8376 12.8092 29.8213 12.8782 29.7752 12.9251Z" fill="#0066CC"/>
</svg>
