<svg width="32" height="32" viewBox="0 0 32 32" fill="none" xmlns="http://www.w3.org/2000/svg">
<path d="M25.4647 27.8436C25.726 28.6827 25.7518 29.1681 25.9198 30.0419C26.0433 30.6836 26.5029 31.3974 27.0327 31.2694C27.4522 31.1681 27.7624 30.7476 27.6327 29.8347C27.5633 29.3459 27.4211 29.0205 27.2327 28.5219C27.1242 28.2339 26.9687 27.8365 26.8762 27.4534C26.7749 27.0356 26.446 26.5974 25.9064 26.7281C25.5064 26.8232 25.2905 27.2854 25.4647 27.8436Z" fill="#1C6399"/>
<path d="M26.6241 27.6214C26.6009 27.6063 26.3974 27.4997 26.1085 27.5939C25.8196 27.6881 25.7227 27.8605 25.7103 27.8854C25.6987 27.9103 26.0116 28.5974 26.0605 28.7912C26.1112 28.9974 26.2863 29.5752 26.2943 29.5992C26.2979 29.6112 26.3039 29.6223 26.3119 29.6319C26.3199 29.6416 26.3297 29.6495 26.3408 29.6553C26.3519 29.6611 26.364 29.6646 26.3765 29.6657C26.3889 29.6667 26.4015 29.6653 26.4134 29.6614L26.9645 29.5023C26.9767 29.4991 26.9881 29.4935 26.9981 29.4859C27.0081 29.4783 27.0165 29.4687 27.0228 29.4578C27.0291 29.4469 27.0331 29.4348 27.0347 29.4223C27.0363 29.4098 27.0354 29.3971 27.0321 29.385L26.8063 28.6045C26.7432 28.3885 26.6481 27.6365 26.6241 27.6214Z" fill="#3B94D9"/>
<path d="M26.1892 29.5679C26.2063 29.5681 26.2234 29.5657 26.2398 29.5608L27.079 29.3146C27.124 29.301 27.1618 29.2703 27.1844 29.2291C27.207 29.1878 27.2126 29.1394 27.1998 29.0941C27.1935 29.0715 27.1827 29.0504 27.1681 29.0319C27.1535 29.0135 27.1353 28.9983 27.1147 28.987C27.0941 28.9757 27.0714 28.9687 27.048 28.9663C27.0246 28.964 27.001 28.9663 26.9785 28.9733L26.1394 29.2195C26.0944 29.2331 26.0565 29.2638 26.0339 29.305C26.0113 29.3462 26.0058 29.3947 26.0185 29.4399C26.0293 29.4768 26.0517 29.5093 26.0825 29.5324C26.1133 29.5554 26.1507 29.5679 26.1892 29.5679ZM25.9936 28.9039C26.0108 28.9041 26.0279 28.9017 26.0443 28.8968L26.8834 28.6506C26.9284 28.637 26.9663 28.6063 26.9889 28.5651C27.0115 28.5238 27.017 28.4754 27.0043 28.4301C26.998 28.4075 26.9872 28.3864 26.9726 28.3679C26.9579 28.3495 26.9398 28.3343 26.9191 28.323C26.8985 28.3117 26.8758 28.3047 26.8524 28.3023C26.8291 28.3 26.8054 28.3023 26.783 28.3093L25.9438 28.5555C25.9028 28.5675 25.8674 28.5939 25.8442 28.6298C25.821 28.6658 25.8116 28.7089 25.8176 28.7513C25.8237 28.7936 25.8448 28.8324 25.8771 28.8604C25.9095 28.8885 25.9508 28.9039 25.9936 28.9039ZM25.7998 28.2399C25.817 28.2401 25.8341 28.2377 25.8505 28.2328L26.6896 27.9866C26.7346 27.973 26.7725 27.9423 26.7951 27.9011C26.8177 27.8598 26.8232 27.8114 26.8105 27.7661C26.8042 27.7435 26.7934 27.7224 26.7788 27.7039C26.7642 27.6855 26.746 27.6703 26.7254 27.659C26.7047 27.6477 26.682 27.6407 26.6587 27.6383C26.6353 27.636 26.6116 27.6383 26.5892 27.6453L25.7501 27.8915C25.709 27.9035 25.6736 27.9299 25.6504 27.9658C25.6272 28.0018 25.6178 28.0449 25.6239 28.0873C25.6299 28.1296 25.651 28.1684 25.6834 28.1964C25.7157 28.2245 25.7571 28.2399 25.7998 28.2399Z" fill="#CCD6DD"/>
<path d="M18.6756 26.992C18.8436 27.8542 19.0516 28.2942 19.3183 29.1422C19.5138 29.7653 19.448 30.6116 18.9218 30.7502C18.5049 30.8605 18.032 30.6373 17.7129 29.7716C17.5423 29.3085 17.5129 28.9547 17.4409 28.4258C17.4 28.1209 17.3476 27.6978 17.2471 27.3156C17.1378 26.8996 17.2196 26.3582 17.7565 26.2169C18.1538 26.1138 18.5636 26.4178 18.6756 26.992Z" fill="#1C6399"/>
<path d="M18.4223 27.1501C18.3992 27.1341 18.1983 27.023 17.9077 27.1101C17.617 27.1973 17.5157 27.367 17.5023 27.3919C17.4899 27.4168 17.7859 28.111 17.8303 28.3057C17.8757 28.5128 18.0374 29.095 18.0446 29.119C18.0479 29.131 18.0537 29.1423 18.0614 29.152C18.0691 29.1618 18.0788 29.17 18.0897 29.176C18.1006 29.182 18.1126 29.1858 18.125 29.1872C18.1374 29.1886 18.1499 29.1874 18.1619 29.1839L18.7166 29.0381C18.7411 29.032 18.7623 29.0165 18.7755 28.9948C18.7886 28.9732 18.7927 28.9472 18.7868 28.9226L18.5797 28.1377C18.5228 27.9199 18.4463 27.1661 18.4223 27.1501Z" fill="#3B94D9"/>
<path d="M17.9377 29.071C17.953 29.0711 17.9683 29.069 17.9831 29.0648L18.8284 28.8426C18.8524 28.8381 18.8752 28.8287 18.8954 28.815C18.9156 28.8013 18.9328 28.7836 18.9458 28.763C18.9589 28.7424 18.9676 28.7193 18.9713 28.6952C18.9751 28.6711 18.9738 28.6464 18.9677 28.6228C18.9615 28.5992 18.9505 28.5771 18.9354 28.5579C18.9203 28.5387 18.9015 28.5229 18.88 28.5113C18.8585 28.4997 18.8348 28.4927 18.8105 28.4907C18.7862 28.4886 18.7617 28.4916 18.7386 28.4994L17.8933 28.7217C17.8519 28.7329 17.8159 28.7587 17.7921 28.7944C17.7682 28.83 17.7581 28.8731 17.7635 28.9157C17.7689 28.9582 17.7895 28.9974 17.8215 29.0259C17.8536 29.0545 17.8948 29.0705 17.9377 29.071ZM17.7617 28.4026C17.777 28.4027 17.7923 28.4006 17.8071 28.3963L18.6524 28.1732C18.6764 28.1687 18.6992 28.1594 18.7194 28.1457C18.7396 28.132 18.7568 28.1143 18.7698 28.0937C18.7829 28.073 18.7916 28.05 18.7953 28.0258C18.7991 28.0017 18.7978 27.9771 18.7917 27.9535C18.7855 27.9299 18.7745 27.9078 18.7594 27.8886C18.7443 27.8694 18.7255 27.8535 18.704 27.842C18.6825 27.8304 18.6588 27.8234 18.6345 27.8213C18.6102 27.8193 18.5857 27.8223 18.5626 27.8301L17.7173 28.0532C17.6759 28.0645 17.6399 28.0903 17.6161 28.1259C17.5922 28.1616 17.5821 28.2047 17.5875 28.2472C17.5929 28.2898 17.6135 28.3289 17.6455 28.3575C17.6776 28.386 17.7188 28.402 17.7617 28.4026ZM17.5848 27.7332C17.6002 27.7333 17.6154 27.7312 17.6302 27.727L18.4755 27.5039C18.4995 27.4994 18.5223 27.49 18.5425 27.4763C18.5627 27.4626 18.5799 27.4449 18.5929 27.4243C18.606 27.4037 18.6147 27.3806 18.6184 27.3565C18.6222 27.3324 18.621 27.3078 18.6148 27.2841C18.6086 27.2605 18.5976 27.2384 18.5825 27.2193C18.5675 27.2001 18.5486 27.1842 18.5271 27.1726C18.5056 27.161 18.482 27.154 18.4576 27.152C18.4333 27.15 18.4088 27.1529 18.3857 27.1608L17.5404 27.3839C17.499 27.3951 17.463 27.421 17.4392 27.4566C17.4153 27.4923 17.4052 27.5353 17.4106 27.5779C17.416 27.6204 17.4366 27.6596 17.4687 27.6882C17.5007 27.7167 17.5419 27.7327 17.5848 27.7332Z" fill="#CCD6DD"/>
<path d="M17.8604 21.3929L20.2284 19.9102L21.2497 22.3609C21.4631 22.5253 21.4986 22.6062 22.6853 23.296C23.7546 23.9173 25.3884 25.8711 26.0551 26.7022C26.2444 26.8782 26.5031 27.1858 26.6293 27.6453C26.1262 27.7671 25.72 27.8818 25.72 27.8818C25.72 27.8818 25.568 27.7022 25.3057 27.5298C24.0275 26.8 19.6888 24.3004 19.6888 24.3004C19.3386 24.0489 19.12 23.8755 18.9955 23.6604L18.9866 23.6658C18.1386 22.4524 18.0551 21.832 17.8604 21.3929ZM12.0542 19.4409L14.5564 20.7627C14.2764 21.2105 14.0392 21.6837 13.848 22.176C13.7742 22.3653 13.7306 22.6115 14.0462 22.8391C14.224 22.9689 14.4311 23.1333 14.696 23.344C14.8773 23.4889 15.0853 23.6542 15.3306 23.8444C16.2168 24.536 17.6257 26.0391 17.7253 26.1333C17.7777 26.1831 17.8542 26.24 17.9377 26.3129C18.0089 26.3751 18.0844 26.4578 18.1582 26.56C18.16 26.5635 18.1626 26.5644 18.1644 26.5671L18.1662 26.5715C18.2729 26.7227 18.3715 26.9164 18.4257 27.1698C18.3484 27.1867 17.568 27.3769 17.568 27.3769C17.568 27.3769 17.4222 27.1787 17.1555 27.0222C16.3493 26.5662 12.1093 24.1644 11.5057 23.7307L11.4506 23.6915C10.8373 23.2515 10.5822 23.0702 10.6373 22.4391C10.7333 21.336 11.7608 19.8471 12.0542 19.4409ZM19.5111 9.21421C19.4844 8.61687 19.6969 7.77776 21.0862 7.77776C22.5964 7.77776 23.9715 7.93065 24.3626 8.04265C24.9413 8.20799 24.9911 7.24265 25.2533 6.30754C25.5155 5.36887 25.7662 4.13154 25.7386 3.92887C25.6915 3.58754 26.1484 1.04976 26.1875 1.01154C26.2515 0.949319 26.432 1.0711 26.5546 1.07821C26.6533 1.08443 26.7235 1.16532 26.8284 1.23465C27.4346 1.63199 27.6337 2.45776 27.6942 3.01243C27.7315 3.35554 27.1635 4.00621 27.1066 4.36799C27.0649 4.63554 26.9697 8.13421 26.9013 8.52621C26.8169 9.00532 26.7173 9.66221 25.904 9.86132C25.0897 10.0595 22.0835 10.1431 21.2773 10.2222C20.3537 10.3129 19.5466 10.0062 19.5111 9.21421ZM1.93507 10.9698C2.18841 10.9538 2.23285 10.9111 2.47907 10.9173C2.83996 10.9262 2.82841 10.9724 2.99196 10.9698C3.34663 10.9635 3.85152 10.936 4.22485 10.8862C4.50041 10.8498 5.97418 10.6018 6.37507 10.5191C6.92085 10.4071 7.59463 10.2053 8.85152 10.3147V10.3138C9.93329 9.66665 12.296 8.68976 13.0773 8.40532C13.9742 8.0791 15.0213 10.8115 13.6124 11.0453C12.4773 11.2329 10.7351 11.9502 8.90841 12.312L8.90752 12.2835C8.88707 12.2978 8.87463 12.3182 8.85241 12.3298C8.85241 12.3298 7.52707 12.1484 6.80529 12.0995C5.80618 12.032 4.42129 11.7387 4.05685 11.8622C3.59641 12.0187 3.10752 12.1644 2.53241 11.832C1.54929 11.264 0.566183 11.5964 0.670183 11.1262C0.693294 11.016 1.45241 11 1.93507 10.9698ZM16.1537 4.28976C16.2089 3.78843 16.6782 3.40087 17.1742 3.45954C17.6755 3.51465 18.0426 3.95554 17.9866 4.45687L17.6213 7.66576L17.9129 7.70843C17.9129 7.70843 18.2604 8.6471 16.6488 8.6471C15.0373 8.6471 15.208 7.91376 15.208 7.91376L15.7369 7.81332L16.1537 4.28976Z" fill="#AF7E57"/>
<path d="M14.3486 4.13156C14.3486 2.61867 15.4224 1.39111 16.746 1.39111C18.0695 1.39111 19.1433 2.61778 19.1433 4.13156C19.1433 5.64534 18.2446 6.87111 16.6597 6.87111C16.0553 6.87111 15.074 6.75022 14.6526 6.32889C14.1504 5.82667 14.3486 4.95378 14.3486 4.13156Z" fill="#AF7E57"/>
<path d="M15.2229 0.648957C15.8611 0.204512 17.4709 0.0462901 18.5625 0.623179C19.7945 1.27385 20.1029 2.47207 19.8976 3.70407C19.7091 4.83651 19.1642 5.30585 19.1642 5.30585C18.9554 5.53162 18.3998 4.93873 18.718 4.4374C19.0914 3.85073 18.9865 3.15829 18.5634 3.11473C18.2647 3.08451 17.9438 3.25873 18.03 3.52718C18.1331 3.84985 18.0007 3.98229 18.0007 3.98229C18.0007 3.98229 17.7545 4.1574 17.5074 3.40985C17.3776 3.01785 16.4505 3.07918 15.0887 2.46229C14.9278 2.3894 14.518 2.84718 14.4025 3.86762C14.3776 4.08807 13.966 3.40896 13.9091 2.91385C13.8158 2.0934 14.4051 1.21962 15.2229 0.648957Z" fill="#60352A"/>
<path d="M18.854 15.9058C18.854 15.9058 19.5882 17.7574 19.8327 18.5262C20.0771 19.2951 20.5864 20.1689 20.5864 20.1689C20.5864 20.1689 19.0496 21.5787 17.8611 21.5431L16.2229 18.6107L14.4264 21.1849C14.4264 21.1849 12.6851 20 11.6113 19.8142C11.6113 19.8142 13.1304 17.1209 13.4442 16.5271C13.6273 16.1778 13.8511 15.8514 14.1109 15.5547L18.854 15.9058Z" fill="#1C6399"/>
<path d="M17.8569 21.6987C17.8299 21.6979 17.8036 21.6901 17.7805 21.6761C17.7574 21.6621 17.7384 21.6423 17.7253 21.6187L16.208 18.9031L14.5546 21.2738C14.5309 21.3069 14.4951 21.3295 14.455 21.3368C14.4149 21.3441 14.3735 21.3355 14.3395 21.3129C14.3226 21.3013 12.6142 20.1458 11.5849 19.968C11.5604 19.9635 11.5373 19.9533 11.5176 19.9381C11.4979 19.923 11.4821 19.9033 11.4715 19.8808C11.4609 19.8583 11.4558 19.8336 11.4566 19.8087C11.4575 19.7838 11.4643 19.7595 11.4764 19.7378C11.4915 19.7111 12.9982 17.0391 13.3084 16.4542C13.6275 15.8489 13.984 15.4649 13.9982 15.4489C14.0139 15.4316 14.0334 15.4182 14.0551 15.4097C14.0769 15.4013 14.1003 15.3979 14.1235 15.4L18.8658 15.7502C18.895 15.7523 18.923 15.7625 18.9466 15.7798C18.9702 15.7971 18.9884 15.8208 18.9991 15.848C19.0293 15.9236 19.7378 17.7138 19.9813 18.4791C20.2178 19.2222 20.7164 20.0827 20.7218 20.0907C20.7396 20.1214 20.7464 20.1572 20.7411 20.1923C20.7358 20.2274 20.7186 20.2596 20.6924 20.2836C20.6284 20.3422 19.1333 21.6996 17.9049 21.6996L17.8569 21.6987ZM19.6835 18.5734C19.4746 17.9156 18.8951 16.4347 18.7449 16.0542L14.1769 15.7173C13.9478 15.9904 13.7482 16.2869 13.5813 16.6018C13.3182 17.1005 12.1973 19.0925 11.8498 19.7094C12.7706 19.9494 13.9893 20.7138 14.3858 20.9725L16.0951 18.5227C16.1109 18.5019 16.1314 18.4852 16.1548 18.4738C16.1783 18.4623 16.2041 18.4566 16.2302 18.4569C16.2835 18.4596 16.3324 18.4898 16.3582 18.5369L17.952 21.3893C18.8889 21.3582 20.0551 20.4213 20.3884 20.1369C20.2426 19.872 19.8818 19.1956 19.6835 18.5734Z" fill="#1C6399"/>
<path d="M19.6807 7.6106C18.959 7.6106 18.3918 7.6746 17.9118 7.70926C17.9118 7.70926 17.8434 8.46215 16.679 8.49682C15.5154 8.53148 15.207 7.9146 15.207 7.9146C15.207 7.9146 13.9527 7.86571 13.3021 8.27637L11.8745 8.88526C11.8745 8.88526 12.6878 10.0746 12.6043 11.3022L13.2621 11.1137C13.2621 11.1137 13.2336 11.1359 13.2016 11.5804C13.1234 12.6533 13.3865 16.3297 13.2496 16.6382C13.2496 16.6382 14.6016 17.1146 16.3332 17.3048C17.3927 17.4213 19.6247 17.399 19.6247 17.399C19.3492 16.2479 19.1545 14.2479 19.111 13.2639C19.0256 11.3324 19.5527 10.3146 19.7403 10.3324C20.5367 10.4062 21.2772 10.2213 21.2772 10.2213C21.2772 10.2213 20.9438 9.60971 21.0176 8.92526C21.0914 8.23993 21.295 7.77682 21.295 7.77682C21.295 7.77682 20.4025 7.6106 19.6807 7.6106Z" fill="#4289C1"/>
<path d="M25.3335 4.41945C26.3423 4.41945 27.1602 3.60162 27.1602 2.59278C27.1602 1.58394 26.3423 0.766113 25.3335 0.766113C24.3247 0.766113 23.5068 1.58394 23.5068 2.59278C23.5068 3.60162 24.3247 4.41945 25.3335 4.41945Z" fill="#226699"/>
<path d="M26.0287 1.61774L26.0989 1.60529C26.0409 1.61472 25.9815 1.60073 25.9339 1.56639C25.8862 1.53205 25.8541 1.48018 25.8447 1.42218C25.8352 1.36419 25.8492 1.30482 25.8836 1.25715C25.9179 1.20947 25.9698 1.17739 26.0278 1.16796L26.4838 1.08618L27.2171 1.88707L27.4393 2.70663L26.7131 2.83996C26.6551 2.84975 26.5956 2.83617 26.5477 2.80218C26.4997 2.76819 26.4671 2.71657 26.4571 2.65863C26.4485 2.6037 26.4611 2.54756 26.4923 2.50153C26.5234 2.4555 26.5709 2.42301 26.6251 2.41063L26.4296 2.4444C26.374 2.45155 26.3177 2.43724 26.2723 2.4044C26.2269 2.37156 26.1957 2.32265 26.185 2.26762C26.1744 2.21259 26.1851 2.15557 26.215 2.10816C26.2449 2.06075 26.2918 2.02651 26.346 2.0124L26.1051 2.05329C25.9851 2.07374 25.8696 1.99285 25.8491 1.87196C25.8287 1.75107 25.9087 1.63818 26.0287 1.61774Z" fill="#AF7E57"/>
</svg>
