<svg width="30" height="30" viewBox="0 0 30 30" fill="none" xmlns="http://www.w3.org/2000/svg">
<path d="M15.0001 0.777832C12.1872 0.777832 9.43745 1.61195 7.09862 3.17471C4.75978 4.73747 2.93689 6.95867 1.86044 9.55744C0.783994 12.1562 0.502347 15.0158 1.05111 17.7747C1.59988 20.5335 2.95442 23.0677 4.94343 25.0567C6.93244 27.0457 9.4666 28.4002 12.2254 28.949C14.9843 29.4978 17.8439 29.2161 20.4427 28.1397C23.0414 27.0632 25.2626 25.2403 26.8254 22.9015C28.3882 20.5627 29.2223 17.8129 29.2223 15.0001C29.2223 11.2281 27.7239 7.61061 25.0567 4.94342C22.3895 2.27624 18.772 0.777832 15.0001 0.777832ZM22.1112 20.4223C22.3469 20.658 22.4794 20.9778 22.4794 21.3112C22.4794 21.6446 22.3469 21.9643 22.1112 22.2001C21.8754 22.4358 21.5557 22.5682 21.2223 22.5682C20.8889 22.5682 20.5691 22.4358 20.3334 22.2001L15.0001 16.8667L9.66673 22.2178C9.55 22.3346 9.41142 22.4272 9.2589 22.4903C9.10639 22.5535 8.94292 22.586 8.77784 22.586C8.61276 22.586 8.44929 22.5535 8.29678 22.4903C8.14426 22.4272 8.00568 22.3346 7.88895 22.2178C7.77222 22.1011 7.67962 21.9625 7.61645 21.81C7.55327 21.6575 7.52076 21.494 7.52076 21.3289C7.52076 21.1639 7.55327 21.0004 7.61645 20.8479C7.67962 20.6954 7.77222 20.5568 7.88895 20.4401L13.2223 15.0712L7.73784 9.54228C7.62111 9.42555 7.52851 9.28697 7.46534 9.13445C7.40216 8.98193 7.36965 8.81847 7.36965 8.65339C7.36965 8.4883 7.40216 8.32484 7.46534 8.17232C7.52851 8.01981 7.62111 7.88123 7.73784 7.7645C7.85457 7.64777 7.99315 7.55517 8.14566 7.492C8.29818 7.42882 8.46165 7.39631 8.62673 7.39631C8.79181 7.39631 8.95527 7.42882 9.10779 7.492C9.26031 7.55517 9.39889 7.64777 9.51562 7.7645L15.0001 13.3112L20.4845 7.82672C20.6012 7.70999 20.7398 7.61739 20.8923 7.55422C21.0448 7.49105 21.2083 7.45853 21.3734 7.45853C21.5385 7.45853 21.7019 7.49105 21.8545 7.55422C22.007 7.61739 22.1456 7.70999 22.2623 7.82672C22.379 7.94345 22.4716 8.08203 22.5348 8.23455C22.598 8.38706 22.6305 8.55053 22.6305 8.71561C22.6305 8.88069 22.598 9.04416 22.5348 9.19667C22.4716 9.34919 22.379 9.48777 22.2623 9.6045L16.7778 15.0712L22.1112 20.4223Z" fill="#FEF9F9"/>
</svg>
