<svg width="32" height="34" viewBox="0 0 32 34" fill="none" xmlns="http://www.w3.org/2000/svg">
<g clip-path="url(#clip0_10_237)">
<path d="M31.9999 2.83325C31.111 4.05631 29.3093 6.42497 28.0968 8.1892C24.7048 13.1239 21.7359 14.2846 18.9164 15.3972C16.0968 16.5098 9.66571 16.369 6.5786 16.2038C3.49149 16.0385 1.48082 15.6569 0.871934 16.5957C-0.996511 19.4791 0.327934 22.7166 3.02838 23.1586C5.14216 23.5043 11.5119 22.8564 14.4942 22.5769C17.4773 22.2964 20.7377 21.3481 21.8568 20.891C22.9759 20.4349 23.8826 20.0599 24.1653 19.3384C24.4479 18.6159 25.8328 16.6779 27.5279 13.7501C28.4844 12.0992 31.111 9.01936 31.9999 7.55547V2.83325Z" fill="#F4900C"/>
<path d="M6.22217 23.2249C8.88883 23.1172 12.4933 22.7649 14.4968 22.577C16.5315 22.3862 18.6782 21.8856 20.2026 21.4408L19.8257 15.0337C19.5199 15.1584 19.2159 15.2783 18.9155 15.3973C16.0959 16.5099 9.66661 16.3691 6.58039 16.2039C6.45506 16.1963 6.22217 16.1878 6.22217 16.1802V23.2249ZM15.1111 26.4445V30.2222C15.1111 31.2649 17.8977 32.1111 21.3333 32.1111C24.7697 32.1111 27.5555 31.2649 27.5555 30.2222V26.4445H15.1111Z" fill="#31373D"/>
<path d="M21.3296 28.3334C24.7661 28.3334 27.5519 27.4878 27.5519 26.4446C27.5519 25.4013 24.7661 24.5557 21.3296 24.5557C17.8932 24.5557 15.1074 25.4013 15.1074 26.4446C15.1074 27.4878 17.8932 28.3334 21.3296 28.3334Z" fill="#66757F"/>
</g>
<defs>
<clipPath id="clip0_10_237">
<rect width="32" height="34" fill="white"/>
</clipPath>
</defs>
</svg>
